<svg width="61" height="68" viewBox="0 0 61 68" fill="none" xmlns="http://www.w3.org/2000/svg">
<path fill-rule="evenodd" clip-rule="evenodd" d="M33.05 64.2396C31.9541 64.0993 31.8167 64.1987 31.3563 62.8692C29.2756 56.8431 27.4239 55.1701 27.0351 47.8092C26.9249 45.7118 27.7124 43.1837 26.6929 41.3673C25.979 40.0964 24.3396 39.4814 23.7403 37.4317C23.0656 35.1269 22.9062 33.942 21.3573 32.7516C17.7193 29.9574 12.4698 32.8981 9.87094 32.9921C8.73327 31.4318 5.82356 29.6869 4.19048 28.4767C1.53787 26.5111 2.44721 25.1534 2.5287 20.1884C2.65946 12.2184 7.14938 12.7286 8.46002 10.7241C11.6626 5.82243 8.23155 7.54465 18.0947 5.02999C19.4752 4.67817 20.7132 4.3118 21.9656 3.80527C23.9965 2.98484 24.5707 2.16078 27.7867 6.5994C28.5643 7.67312 29.212 8.5568 30.1024 9.39626C31.0799 10.3189 33.1724 9.51116 34.4147 9.30487C35.9221 9.0543 37.5152 8.79562 39.0707 8.82732C49.7481 9.04255 46.4081 24.2597 52.7622 25.8517C55.8184 26.6178 59.857 25.0638 58.1911 29.9312C57.0772 33.1893 53.5937 36.2404 51.1061 38.1915C49.7707 39.2398 48.8611 39.0816 49.0692 41.2732C49.3613 44.3586 50.4301 47.4489 48.7755 49.8356C48.1153 50.7881 46.6341 52.1464 45.0779 52.9472C44.8961 53.0405 44.8022 53.0489 44.5394 53.2658C43.7342 53.9339 44.1826 55.6175 45.2288 55.4492C46.0731 55.3142 49.0759 53.5395 50.5841 51.4836C53.3188 47.7515 51.761 45.5906 51.4959 40.8608C53.7229 39.8585 59.1187 34.4973 60.3279 31.2048C62.1981 26.1122 60.0455 23.802 55.3557 23.6347C53.4758 23.5677 52.6301 23.6799 51.9623 22.2208C49.8082 17.5046 49.6527 12.4292 46.1962 9.26779C40.7426 4.28108 35.6022 7.22264 31.3307 7.27421L28.2077 3.1576C24.2491 -1.50171 22.6124 1.29606 18.3267 2.43941C16.4195 2.94776 14.4934 3.34758 12.5307 3.85684C7.85352 5.06889 8.84789 5.38643 6.76332 8.83179C5.61303 10.7331 0.13506 10.8091 0.0965297 20.5429C0.0696409 27.3225 -0.859379 27.7015 3.6521 31.1451C5.12843 32.273 6.44794 33.0274 7.7872 34.2323C10.0671 36.2847 10.2194 35.4299 13.259 34.7009C23.4885 32.2486 19.4115 37.5909 23.2807 41.2687C26.2324 44.0746 23.8325 43.8195 24.817 50.4954C25.1225 52.565 25.4889 54.5785 26.141 56.448C26.7439 58.1771 27.5897 59.7811 28.2795 61.5512C28.7891 62.8617 29.6429 65.9923 30.4653 66.6043C30.8801 66.9122 31.8648 67.2398 32.9711 67.4279C33.3617 67.4939 34.0181 67.3854 33.7951 65.7435C33.6922 64.9859 33.4946 64.2965 33.05 64.2396Z" fill="#FFB715"/>
<path fill-rule="evenodd" clip-rule="evenodd" d="M42.6842 49.8597L42.9997 34.7821C48.2558 33.2842 47.0938 28.6846 46.8122 20.8847C46.7912 20.361 46.6469 19.972 46.4381 19.7079C45.6923 18.7654 44.5341 19.2629 44.4966 20.6668C44.4433 22.6893 44.5529 27.486 44.5356 28.5535C44.5063 30.244 44.4252 31.5448 43.0019 31.9799L43.0703 21.6011C43.0785 20.3935 43.1146 19.3036 41.8783 19.3135C40.6608 19.3244 40.5902 20.2371 40.5947 21.4247L40.5616 31.9726C39.6243 31.941 39.1714 30.5669 39.1601 28.5805C39.1413 25.2962 39.4065 21.2646 39.257 20.2099C38.8792 18.788 37.0338 19.1778 36.8686 20.5745C36.7379 21.6835 36.7334 23.8706 36.7709 25.8859C36.8438 29.7709 36.2827 32.926 40.5999 34.5822C40.5353 40.744 40.1808 46.9907 40.144 53.1405L40.1831 55.694C40.2071 57.2305 42.5002 57.3367 42.537 55.8464L42.6842 49.8597Z" fill="#F9F9F9"/>
<path fill-rule="evenodd" clip-rule="evenodd" d="M35.9462 66.441C36.2301 67.9509 38.5074 67.6605 38.2911 66.1839C36.7176 55.4534 35.0006 44.7546 33.3099 34.0394C33.4241 33.408 34.1706 33.1213 34.8767 31.9056C36.867 28.4764 35.6916 22.9153 33.5082 20.6639C31.1302 18.2098 26.7172 19.0284 26.0014 24.9034C25.6376 27.8876 26.3463 31.2471 28.4067 33.256C29.2111 34.0412 29.9287 33.9779 30.8441 34.5387C32.4514 45.1001 33.9754 55.9525 35.9462 66.441ZM30.0702 21.876C29.2434 22.1682 28.7184 23.1179 28.4846 24.0233C27.6694 27.1883 29.3876 32.668 31.7529 31.9471C33.3422 31.4632 33.6359 28.1183 33.3572 26.1418C33.1214 24.4674 31.7364 21.2871 30.0702 21.876Z" fill="#F9F9F9"/>
</svg>
