<svg width="224" height="259" viewBox="0 0 224 259" fill="none" xmlns="http://www.w3.org/2000/svg">
<path d="M165.687 200.805H33.8333C33.8333 200.805 6.27198 200.052 0.445068 192.064H163.023L165.687 200.805Z" fill="#263740"/>
<path d="M87.8462 65.9426L56.2236 76.8069C43.6542 81.1243 34.0684 91.4283 30.6699 104.277L14.5063 165.376C9.63524 183.791 23.52 201.826 42.5681 201.826H86.6652L90.4451 192.062H179.508L175.729 178.36L180.715 179.578C190.517 181.971 200.871 180.305 209.428 174.958C221.759 167.251 225.359 150.923 217.412 138.745L183.672 87.0437C175.668 74.7783 163.005 66.3122 148.612 63.6041L114.079 57.1069L87.8462 65.9426Z" fill="white"/>
<path d="M107.887 84.8916C127.411 76.1509 130.756 60.1703 141.053 62.1821H141.055L114.078 57.1069L87.846 65.9435L63.8076 74.2013C72.7433 71.132 88.0191 93.787 107.887 84.8916Z" fill="#E1E8E5"/>
<path d="M101.497 73.3589L114.276 192.063" stroke="#263740" stroke-width="0.766058" stroke-linecap="round" stroke-linejoin="round"/>
<path d="M114.111 100.226C114.111 101.539 113.047 102.603 111.734 102.603C110.421 102.603 109.357 101.539 109.357 100.226C109.357 98.9134 110.421 97.8491 111.734 97.8491C113.047 97.8491 114.111 98.9134 114.111 100.226Z" stroke="#A9CCBA" stroke-width="0.766058" stroke-linecap="round" stroke-linejoin="round"/>
<path d="M117.098 126.471C117.098 127.784 116.034 128.848 114.721 128.848C113.408 128.848 112.344 127.784 112.344 126.471C112.344 125.158 113.408 124.094 114.721 124.094C116.034 124.094 117.098 125.158 117.098 126.471Z" stroke="#A9CCBA" stroke-width="0.766058" stroke-linecap="round" stroke-linejoin="round"/>
<path d="M121.161 161.603C121.161 162.916 120.096 163.98 118.783 163.98C117.47 163.98 116.406 162.916 116.406 161.603C116.406 160.29 117.47 159.226 118.783 159.226C120.096 159.226 121.161 160.29 121.161 161.603Z" stroke="#A9CCBA" stroke-width="0.766058" stroke-linecap="round" stroke-linejoin="round"/>
<path d="M96.3506 169.855C96.3506 169.855 89.971 169.147 86.3095 170.682C84.4196 165.485 78.8673 163.714 73.1983 166.371C67.5285 163.714 61.7402 161.705 61.7402 161.705L73.4344 121.82" stroke="#263740" stroke-width="0.766058" stroke-linecap="round" stroke-linejoin="round"/>
<path d="M85.8377 174.817C85.8377 174.817 80.2863 184.149 74.8525 192.063" stroke="#263740" stroke-width="0.766058" stroke-linecap="round" stroke-linejoin="round"/>
<path d="M72.4896 169.855L52.4092 187.81" stroke="#263740" stroke-width="0.766058" stroke-linecap="round" stroke-linejoin="round"/>
<path d="M59.1818 161.796L39.093 165.46C37.3341 165.78 35.7146 164.429 35.7146 162.641C35.7146 161.059 36.9972 159.775 38.5789 159.775H50.6771" stroke="#263740" stroke-width="0.766058" stroke-linecap="round" stroke-linejoin="round"/>
<path d="M48.8652 85.9424C59.496 87.4073 73.1598 95.5945 74.0057 116.543" stroke="#263740" stroke-width="0.766058" stroke-linecap="round" stroke-linejoin="round"/>
<path d="M95.2876 183.44L108.715 171.177V184.385L95.2876 183.44Z" fill="#263740"/>
<path d="M101.496 73.3583L99.1613 81.4279C98.5598 83.5069 96.097 84.383 94.318 83.1516L78.3677 72.1084L84.6591 61.1241L111.258 53.4551L120.266 59.3131L115.228 77.2423C114.655 79.2835 112.276 80.1949 110.485 79.0592L101.496 73.3583Z" fill="#53694C"/>
<path d="M79.7411 21.3521L77.1355 34.7228C71.9923 40.5892 72.4896 54.3244 83.9334 56.1371L85.7461 68.6007L101.496 73.36L112.486 60.8964L105.958 21.3521H79.7411Z" fill="#F47E61"/>
<path d="M103.963 41.8368C103.963 44.4029 101.884 46.4827 99.3175 46.4827C96.7514 46.4827 94.6716 44.4029 94.6716 41.8368C94.6716 39.2707 96.7514 37.1909 99.3175 37.1909C101.884 37.1909 103.963 39.2707 103.963 41.8368Z" fill="#C23E3E"/>
<path d="M83.9343 56.1371C89.0943 57.109 95.7259 56.4798 100.516 52.3043C101.507 51.4408 103.015 52.4647 102.534 53.6886C100.751 58.2236 96.2912 64.1219 85.1447 64.4638L83.9343 56.1371Z" fill="#263740"/>
<path d="M86.4205 30.8838V34.2462L82.3105 39.6011H88.7868" stroke="#4D362F" stroke-width="0.766058" stroke-linecap="round" stroke-linejoin="round"/>
<path d="M83.3379 44.6066C86.1451 45.5692 90.4357 45.0073 93.2429 42.8418" stroke="#4D362F" stroke-width="0.766058" stroke-linecap="round" stroke-linejoin="round"/>
<path d="M92.7828 38.4829C92.1007 40.2477 92.8223 44.498 97.2733 45.0599" stroke="#4D362F" stroke-width="0.766058" stroke-linecap="round" stroke-linejoin="round"/>
<path d="M83.3389 33.152C83.3389 34.1037 82.5669 34.8748 81.6152 34.8748C80.6635 34.8748 79.8916 34.1037 79.8916 33.152C79.8916 32.2003 80.6635 31.4292 81.6152 31.4292C82.5669 31.4292 83.3389 32.2003 83.3389 33.152Z" fill="#263740"/>
<path d="M94.1509 33.152C94.1509 34.1037 93.3789 34.8748 92.4272 34.8748C91.4756 34.8748 90.7036 34.1037 90.7036 33.152C90.7036 32.2003 91.4756 31.4292 92.4272 31.4292C93.3789 31.4292 94.1509 32.2003 94.1509 33.152Z" fill="#263740"/>
<path d="M80.3176 27.4682C80.3176 27.4682 83.2928 26.8609 86.1471 27.4682" stroke="#334A63" stroke-width="1.65559" stroke-miterlimit="10"/>
<path d="M90.5322 27.4682C90.5322 27.4682 93.5074 26.8609 96.3617 27.4682" stroke="#334A63" stroke-width="1.65559" stroke-miterlimit="10"/>
<path d="M117.006 7.08652C114.643 5.3579 111.579 5.21053 108.926 6.40304C107.855 2.69727 104.584 0 100.712 0C97.5865 0 94.8598 1.76127 93.3574 4.38606C91.8423 2.11735 89.0327 0.588684 85.8081 0.588684C80.9807 0.588684 77.0678 4.00449 77.0678 8.21768C77.0678 8.62713 77.1148 9.02702 77.1865 9.41974C72.0158 9.81964 67.9739 13.3119 67.9739 17.5633C67.9739 22.0832 72.5432 25.7476 78.1799 25.7476C81.3232 25.7476 84.132 24.606 86.004 22.8129C87.7302 23.4709 89.7114 23.8461 91.8192 23.8461C95.3616 23.8461 98.5385 22.7834 100.753 21.0994C101.648 24.1217 104.615 26.3434 108.146 26.3434C111.415 26.3434 114.199 24.4396 115.306 21.7606C116.45 21.1193 117.494 20.2232 118.335 19.0753C121.234 15.1114 120.639 9.74396 117.006 7.08652Z" fill="#592E2E"/>
<path d="M104.788 37.3833L112.127 33.6874C115.023 32.2292 118.547 33.5203 119.817 36.503C121.03 39.3531 119.706 42.6474 116.858 43.8637L114.778 44.7516C113.087 45.474 111.231 45.7276 109.408 45.4824L104.028 44.7591L104.788 37.3833Z" fill="#F47E61"/>
<path d="M107.189 41.8369L108.326 40.4904C110.206 38.2611 112.973 36.9751 115.889 36.9751H117.501" stroke="#4D362F" stroke-width="0.766058" stroke-linecap="round" stroke-linejoin="round"/>
<path d="M115.434 40.6221L111.136 38.1929" stroke="#4D362F" stroke-width="0.766058" stroke-linecap="round" stroke-linejoin="round"/>
<path d="M166.995 198.921L164.854 193.174C163.936 190.707 162.283 188.582 160.119 187.084L154.96 183.513C152.333 181.695 149.073 181.045 145.95 181.717L133.558 184.385L102.336 177.888L93.9089 200.804H127.059C130.285 200.804 133.479 200.175 136.464 198.952L140.826 197.164L143.448 199.256C144.703 200.258 146.262 200.804 147.869 200.804H165.687C166.66 200.804 167.335 199.833 166.995 198.921Z" fill="#F47E61"/>
<path d="M140.188 196.57L137.299 193.874" stroke="#4D362F" stroke-width="0.766058" stroke-linecap="round" stroke-linejoin="round"/>
<path d="M101.334 200.804L114.18 180.353L102.335 177.888L93.9097 200.804H101.334Z" fill="#263740"/>
<path d="M97.8571 201.827H86.3108L97.9319 169.029L108.716 171.178L97.8571 201.827Z" fill="#53694C"/>
<path d="M153.048 186.944L163.024 200.245" stroke="#4D362F" stroke-width="0.766058" stroke-linecap="round" stroke-linejoin="round"/>
<path d="M147.063 188.678L157.054 200.245" stroke="#4D362F" stroke-width="0.766058" stroke-linecap="round" stroke-linejoin="round"/>
<path d="M141.547 190.401L150.046 200.244" stroke="#4D362F" stroke-width="0.766058" stroke-linecap="round" stroke-linejoin="round"/>
<path d="M126.354 194.424C126.354 194.424 126.595 199.959 133.297 199.436" stroke="#4D362F" stroke-width="0.766058" stroke-linecap="round" stroke-linejoin="round"/>
<path d="M61.7415 161.705C61.7415 161.705 67.5297 163.714 73.1996 166.372C78.8686 163.714 84.4208 165.485 86.3107 170.682C88.4829 169.771 91.6026 169.653 93.7882 169.705C74.6527 157.775 71.2021 139.614 70.6805 131.212L61.7415 161.705Z" fill="#263740"/>
<path d="M131.124 79.897L131.362 85.3865C131.389 86.0124 130.903 86.5425 130.277 86.5703C129.651 86.597 129.121 86.111 129.094 85.4851L128.854 79.996L127.192 80.0687L127.432 85.5569C127.46 86.1837 126.973 86.714 126.346 86.741C125.72 86.7686 125.19 86.2827 125.162 85.656L124.924 80.1676L123.262 80.2394L123.642 88.9627C123.728 90.9542 124.983 92.705 126.753 93.3968L127.748 122.369L131.979 122.186L130.452 93.262C132.13 92.4648 133.259 90.7248 133.173 88.7522L132.785 79.8243L131.124 79.897Z" fill="#263740"/>
<path d="M138.421 83.879L142.869 87.5673C142.869 87.5673 144.601 88.3305 144.214 90.0163C143.827 91.7021 146.901 91.361 146.744 89.9344C146.586 88.5077 146.773 88.6217 146.773 88.6217C146.773 88.6217 149.449 88.7091 149.379 87.0622C149.314 85.5902 148.338 84.5436 147.322 85.2688C146.305 85.9941 141.731 82.1697 141.731 82.1697L138.421 83.879Z" fill="#CEC3BC"/>
<path d="M116.91 66.3559C111.368 71.848 114.942 82.8109 126.352 82.849C134.456 82.8765 137.508 83.4202 138.062 84.2519C138.617 85.0835 141.217 86.7195 141.759 86.6547C142.301 86.5899 144.498 86.341 144.66 85.3949C144.821 84.4488 146.426 84.8113 143.033 82.6698C142.708 82.4588 140.551 80.7457 138.842 76.8656C137.134 72.9855 128.482 54.8894 116.91 66.3559Z" fill="#AD6F36"/>
<mask id="mask0_1566_2521" style="mask-type:alpha" maskUnits="userSpaceOnUse" x="114" y="62" width="36" height="30">
<path d="M138.421 83.879L142.869 87.5673C142.869 87.5673 144.601 88.3305 144.214 90.0163C143.827 91.7021 146.901 91.361 146.744 89.9344C146.586 88.5077 146.773 88.6217 146.773 88.6217C146.773 88.6217 149.449 88.7091 149.379 87.0622C149.314 85.5902 148.338 84.5436 147.322 85.2688C146.305 85.9941 141.731 82.1697 141.731 82.1697L138.421 83.879Z" fill="#CEC3BC"/>
<path d="M116.91 66.3559C111.368 71.848 114.942 82.8109 126.352 82.849C134.456 82.8765 137.508 83.4202 138.062 84.2519C138.617 85.0835 141.217 86.7195 141.759 86.6547C142.301 86.5899 144.498 86.341 144.66 85.3949C144.821 84.4488 146.426 84.8113 143.033 82.6698C142.708 82.4588 140.551 80.7457 138.842 76.8656C137.134 72.9855 128.482 54.8894 116.91 66.3559Z" fill="#AD6F36"/>
</mask>
<g mask="url(#mask0_1566_2521)">
<path d="M141.215 86.356C143.909 96.4104 137.942 106.745 127.888 109.439C117.834 112.133 107.499 106.166 104.805 96.112C102.111 86.0577 102.273 68.6251 112.328 65.9311C118.266 88.0937 138.521 76.3016 141.215 86.356Z" fill="#9F632C"/>
</g>
<path d="M139.928 163.188L143.899 132.417L158.894 143.332L139.928 163.188Z" fill="#263740"/>
<path d="M151.534 169.537C151.534 169.537 154.837 179.294 164.69 176.822C166.108 182.207 170.106 186.704 176.928 187.161" stroke="#263740" stroke-width="0.766058" stroke-linecap="round" stroke-linejoin="round"/>
<path d="M185.625 133.24L216.074 148.992C216.074 148.992 223.671 166.962 205.106 180.239C205.128 180.222 195.332 188.427 178.819 187.349L154.242 172.892L185.625 133.24Z" fill="white"/>
<path d="M186.915 133.764L195.16 137.115" stroke="#263740" stroke-width="0.766058" stroke-linecap="round" stroke-linejoin="round"/>
<path d="M154.241 172.893L185.625 133.24L176.142 129.386L154.241 172.893Z" fill="#263740"/>
<path d="M123.157 113.349L121.574 113.517C120.596 113.62 119.719 112.911 119.616 111.933L118.608 102.414C118.412 100.562 119.755 98.9011 121.608 98.7052C123.46 98.5093 125.122 99.8524 125.318 101.705L126.156 109.64C126.352 111.493 125.01 113.153 123.157 113.349Z" fill="#263740"/>
<path d="M164.389 124.517L145.675 117.162L141.92 102.903C141.248 100.349 139.083 98.4651 136.462 98.1529L126.084 96.916C122.491 96.4872 120.034 100.529 122.137 103.474C122.279 103.673 122.436 103.876 122.608 104.08C121.004 105.384 120.451 108.975 122.833 111.194C120.82 113.221 121.637 116.97 123.48 118.283C122.163 120.748 124.48 125.695 129.669 124.072C129.669 124.072 132.624 131.328 138.864 128.842L156.503 148.614L164.389 124.517Z" fill="#F47E61"/>
<path d="M123.343 104.142L136.611 104.74" stroke="#4D362F" stroke-width="0.766058" stroke-linecap="round" stroke-linejoin="round"/>
<path d="M123.761 111.26L136.116 110.305" stroke="#4D362F" stroke-width="0.766058" stroke-linecap="round" stroke-linejoin="round"/>
<path d="M124.651 118.254L135.282 116.374" stroke="#4D362F" stroke-width="0.766058" stroke-linecap="round" stroke-linejoin="round"/>
<path d="M130.252 123.783L135.91 122.293" stroke="#4D362F" stroke-width="0.766058" stroke-linecap="round" stroke-linejoin="round"/>
<path d="M157.943 120.753L176.533 128.607L153.365 174.632L139.928 163.187L157.943 120.753Z" fill="#53694C"/>
<g clip-path="url(#clip0_1566_2521)">
<path d="M40.9561 216.445C40.9561 216.373 40.9561 216.301 40.9561 216.231C40.9561 215.024 41.5546 213.863 42.6592 212.777H42.6939C42.9403 212.764 43.1865 212.808 43.4149 212.908C43.4997 212.95 43.573 213.014 43.6275 213.095C43.6933 213.198 43.7288 213.319 43.7292 213.443C43.7569 214.223 42.9319 215.599 42.7355 217.143C42.7355 217.188 42.7239 217.232 42.7193 217.279C42.7027 217.443 42.6942 217.607 42.6939 217.772C42.7177 218.532 42.8744 219.28 43.1561 219.977L43.237 220.192L43.133 220.103C43.0845 220.064 43.0382 220.022 42.992 219.98L42.8557 219.857L42.7263 219.733C42.6407 219.652 42.5552 219.568 42.4767 219.487C42.3981 219.405 42.3357 219.334 42.2687 219.257C42.0207 218.979 41.7971 218.678 41.6008 218.357L41.543 218.258C41.4571 218.11 41.3799 217.957 41.3119 217.799C41.2773 217.72 41.2449 217.641 41.2149 217.553C41.1987 217.508 41.1825 217.464 41.1687 217.419C41.1548 217.375 41.1386 217.328 41.1248 217.284C41.0668 217.086 41.0243 216.884 40.9977 216.679C40.9977 216.642 40.9977 216.608 40.9977 216.571C40.9977 216.534 40.9977 216.499 40.9977 216.465C40.9986 216.458 40.9986 216.452 40.9977 216.445H40.9561Z" fill="#BF4E49"/>
<path d="M43.5904 221.173C43.8492 221.943 44.2837 223.886 43.149 223.886C42.8186 223.886 42.4003 223.886 41.9288 223.886C39.0887 223.845 33.8405 221.605 34.2472 217.473V217.227C34.6169 220.391 38.6796 221.358 41.291 221.42C41.8341 221.42 42.3148 221.42 42.6776 221.42C43.1629 221.41 43.4448 221.329 43.5904 221.173Z" fill="#353535"/>
<path d="M106.805 216.445C106.805 216.445 106.805 216.467 106.805 216.477C106.805 216.487 106.805 216.548 106.805 216.583C106.805 216.617 106.805 216.654 106.805 216.691C106.778 216.896 106.735 217.098 106.677 217.296C106.664 217.34 106.65 217.384 106.634 217.431C106.617 217.478 106.603 217.52 106.587 217.564C106.557 217.646 106.525 217.725 106.49 217.811C106.422 217.969 106.345 218.122 106.259 218.27L106.201 218.369C106.005 218.69 105.782 218.991 105.534 219.269C105.466 219.346 105.396 219.423 105.326 219.498C105.247 219.582 105.161 219.666 105.076 219.745L104.947 219.868L104.81 219.992C104.764 220.034 104.718 220.076 104.669 220.115L104.501 220.258L104.35 220.379C104.2 220.5 104.041 220.626 103.877 220.739L103.597 220.934C103.303 221.136 102.991 221.336 102.673 221.528L102.478 221.642C100.535 222.706 98.4949 223.553 96.389 224.17C96.0909 224.261 95.7882 224.35 95.4785 224.439L95.2613 224.501L94.8407 224.617C94.5703 224.691 94.2953 224.762 94.018 224.834C93.4079 224.987 92.7839 225.135 92.1415 225.278L91.878 225.332C91.3095 225.455 90.7287 225.572 90.1356 225.682C89.8374 225.739 89.5393 225.793 89.2366 225.845L88.7236 225.931C88.4925 225.971 88.2614 226.005 88.0303 226.042C87.5958 226.111 87.1567 226.176 86.713 226.237C85.8811 226.354 85.0337 226.458 84.171 226.55C83.8151 226.59 83.4569 226.627 83.094 226.661C81.9247 226.772 80.7276 226.864 79.5097 226.933C78.791 226.972 78.0631 227.007 77.3282 227.031H77.1757C76.6603 227.046 76.1404 227.061 75.6181 227.068C75.0542 227.078 74.4865 227.083 73.9149 227.083C73.3433 227.083 72.7756 227.078 72.2117 227.068C71.6894 227.068 71.1695 227.046 70.6541 227.031H70.5016C69.7667 227.007 69.0388 226.972 68.3201 226.933L67.3541 226.874L67.0999 226.856L66.5753 226.817L66.1269 226.782L65.8057 226.755L64.7473 226.661C64.3845 226.627 64.0263 226.59 63.6704 226.55L63.3006 226.511L62.7483 226.447L62.3971 226.405H62.3439L62.0157 226.363H61.9533L61.3664 226.284L61.0867 226.247L60.4882 226.161L59.7695 226.052L59.4413 226L59.0854 225.941L58.5724 225.855C58.2697 225.803 57.9716 225.749 57.6734 225.692C57.0788 225.582 56.4979 225.465 55.931 225.342L55.6675 225.288C55.0251 225.144 54.4011 224.996 53.791 224.844C53.5137 224.772 53.2387 224.7 52.9683 224.626L52.5477 224.511L52.3305 224.449C52.0208 224.36 51.7181 224.271 51.42 224.18C49.308 223.559 47.2619 222.707 45.3144 221.637L45.1203 221.523C44.7898 221.331 44.4778 221.131 44.1959 220.929L43.9163 220.734L43.706 220.581C43.6158 220.515 43.528 220.446 43.4425 220.376L43.2923 220.256L43.2276 220.201L43.1236 220.113C43.0751 220.073 43.0289 220.031 42.9826 219.989L42.8463 219.866L42.7169 219.743C42.6314 219.661 42.5459 219.577 42.4673 219.496C42.3887 219.414 42.3263 219.343 42.2593 219.266C42.0113 218.989 41.7877 218.687 41.5914 218.366L41.5337 218.267C41.4477 218.12 41.3705 217.967 41.3026 217.809C41.2679 217.73 41.2356 217.651 41.2055 217.562C41.1893 217.518 41.1732 217.473 41.1593 217.429C41.1454 217.384 41.1292 217.338 41.1154 217.293C41.0574 217.096 41.0149 216.894 40.9883 216.689C40.9883 216.652 40.9883 216.617 40.9883 216.58C40.9883 216.543 40.9883 216.509 40.9883 216.474C40.9893 216.468 40.9893 216.461 40.9883 216.454C41.0738 214.755 41.9358 213.635 43.4402 212.917C43.5327 212.875 43.6274 212.831 43.7268 212.792C44.0934 212.633 44.4694 212.501 44.8522 212.394C50.3985 210.895 61.3248 212.535 73.8872 212.535C86.4496 212.535 97.3643 210.89 102.915 212.394C105.302 213.036 106.696 214.262 106.805 216.445Z" fill="#353535"/>
<path d="M106.811 216.23C106.811 216.302 106.811 216.374 106.811 216.445C106.811 216.445 106.811 216.467 106.811 216.477H105.194C105.206 216.363 105.212 216.248 105.212 216.134C105.212 214.809 104.403 213.546 102.934 212.389C98.2886 208.731 87.0388 206.151 73.8987 206.151C60.7585 206.151 49.4903 208.731 44.8522 212.394C44.4479 212.707 44.0719 213.06 43.729 213.448C43.5937 213.596 43.4679 213.755 43.3523 213.921C42.8675 214.548 42.5933 215.329 42.5736 216.141C42.5739 216.256 42.5801 216.37 42.592 216.484H40.9744C40.9754 216.478 40.9754 216.471 40.9744 216.464C40.9744 216.392 40.9744 216.32 40.9744 216.25C40.9744 215.044 41.5729 213.882 42.6775 212.796C42.957 212.523 43.251 212.267 43.558 212.029C48.5543 208.132 60.2617 205.397 73.9056 205.397C92.0675 205.377 106.811 210.236 106.811 216.23Z" fill="#444444"/>
<path d="M73.1869 242.87C88.9493 242.87 101.727 240.054 101.727 236.58C101.727 233.106 88.9493 230.29 73.1869 230.29C57.4245 230.29 44.6465 233.106 44.6465 236.58C44.6465 240.054 57.4245 242.87 73.1869 242.87Z" fill="#CECECE"/>
<path d="M73.8802 226.111C91.1742 226.111 105.194 221.643 105.194 216.131C105.194 210.62 91.1742 206.151 73.8802 206.151C56.5862 206.151 42.5667 210.62 42.5667 216.131C42.5667 221.643 56.5862 226.111 73.8802 226.111Z" fill="#C6C6C6"/>
<path d="M42.5852 216.477C42.5852 216.477 55.1984 212.02 58.2813 211.544C61.3641 211.067 73.0067 211.891 74.6891 211.297C76.3715 210.702 84.6147 211.492 91.097 212.53C93.5304 212.92 105.194 213.322 105.194 216.131C105.194 218.941 103.738 228.699 73.046 226.287C42.3541 223.874 43.9903 223.877 42.5852 216.477Z" fill="#47201A"/>
<path d="M66.0946 213.966C66.0946 215.276 62.9055 216.477 59.6955 216.477C56.4856 216.477 54.4705 215.276 54.4705 213.966C54.4705 212.98 55.9726 211.236 58.1033 210.459C58.5792 210.282 59.0723 210.164 59.5731 210.106C59.7772 210.081 59.9823 210.067 60.1878 210.064H60.2825C60.5483 210.064 60.8138 210.081 61.0775 210.116C63.9131 210.491 66.0946 212.767 66.0946 213.966Z" fill="#4F2518"/>
<path d="M61.0776 210.116C61.0149 210.413 60.9267 210.704 60.8141 210.984C60.643 211.416 60.4446 211.834 60.2202 212.237C59.4853 213.559 58.5332 214.63 58.2582 213.828C58.0433 213.194 58.4731 212.299 59.0531 211.465C59.3325 211.069 59.6326 210.69 59.9521 210.33C60.0307 210.237 60.1077 210.148 60.1832 210.064H60.278C60.5452 210.063 60.8123 210.081 61.0776 210.116Z" fill="#F4F4F4"/>
<path d="M62.6029 212.811C62.2793 213.157 61.2302 212.811 60.2203 212.237C59.818 212.01 59.4318 211.752 59.0648 211.465C58.6872 211.202 58.364 210.859 58.115 210.458C58.5909 210.282 59.084 210.164 59.5848 210.105C59.7147 210.173 59.8412 210.248 59.9638 210.33C60.2637 210.528 60.5516 210.747 60.8258 210.984C61.4596 211.545 62.0536 212.156 62.6029 212.811Z" fill="#F4F4F4"/>
<path d="M74.4326 193.421C73.6908 197.005 70.7536 195.671 70.5271 198.796C70.3006 201.921 66.885 198.759 67.093 202.067C67.301 205.374 65.644 204.213 65.7781 206.151C65.9121 208.09 66.3442 210.466 66.3442 210.466C66.3442 210.466 64.2829 215.137 64.5186 216.792C64.7543 218.448 64.3476 220.492 63.9732 221.943C63.5988 223.393 64.6041 224.597 64.6041 224.597C64.6041 224.597 66.0091 221.195 67.2316 218.218C68.4541 215.241 67.4627 210.034 70.6149 208.569C73.7671 207.103 77.8713 207.187 77.4369 202.829C77.0024 198.47 79.7779 195.017 80.4712 193.784C81.1645 192.55 78.9737 190.688 78.9737 190.688C78.9737 190.688 74.8601 191.332 74.4326 193.421Z" fill="#0E5110"/>
<path d="M75.5489 196.87C75.5489 196.87 68.2209 205.451 67.9875 209.731C67.754 214.01 67.3542 216.637 67.3542 216.637C67.3542 216.637 69.8963 207.106 71.2575 204.768C72.6186 202.429 75.5489 196.87 75.5489 196.87Z" fill="#377C37"/>
<path d="M77.2935 198.414C77.0624 202.074 73.9657 201.216 74.1737 204.334C74.3817 207.452 70.5663 204.869 71.2272 208.11C71.8882 211.352 70.0925 210.459 70.4923 212.355C70.8921 214.252 71.6478 216.534 71.6478 216.534C71.6478 216.534 70.2612 221.48 70.7234 223.08C71.1856 224.681 71.0655 226.78 70.8945 228.26C70.7234 229.74 71.8859 230.786 71.8859 230.786C71.8859 230.786 72.8102 227.2 73.6029 224.065C74.3956 220.929 72.7016 215.925 75.6181 213.986C78.5345 212.047 82.6041 211.48 81.5734 207.235C80.5427 202.99 82.8098 199.139 83.3251 197.812C83.8405 196.485 81.4232 194.985 81.4232 194.985C81.4232 194.985 77.4368 196.28 77.2935 198.414Z" fill="#0E5110"/>
<path d="M78.8788 201.647C78.8788 201.647 72.8149 211.287 73.1754 215.557C73.5359 219.827 73.5082 222.476 73.5082 222.476C73.5082 222.476 74.7099 212.641 75.7244 210.123C76.7389 207.604 78.8788 201.647 78.8788 201.647Z" fill="#377C37"/>
<path d="M81.31 202.595C81.1136 205.619 78.5622 204.911 78.7356 207.493C78.9089 210.076 75.7567 207.935 76.3021 210.611C76.8475 213.288 75.3569 212.55 75.6943 214.121C76.0317 215.693 76.6465 217.575 76.6465 217.575C76.6465 217.575 75.491 221.657 75.8792 222.979C76.2675 224.301 76.1612 226.033 76.0202 227.256C75.8792 228.48 76.836 229.343 76.836 229.343C76.836 229.343 77.5963 226.383 78.2572 223.791C78.9181 221.198 77.5108 217.076 79.9188 215.471C82.3268 213.865 85.6962 213.401 84.8365 209.896C83.9768 206.391 85.858 203.211 86.2832 202.114C86.7084 201.016 84.7117 199.78 84.7117 199.78C84.7117 199.78 81.4255 200.834 81.31 202.595Z" fill="#0E5110"/>
<path d="M82.6202 205.269C82.6202 205.269 77.6124 213.226 77.9105 216.751C78.2086 220.276 78.1786 222.466 78.1786 222.466C78.1786 222.466 79.1769 214.351 80.0135 212.264C80.85 210.177 82.6202 205.269 82.6202 205.269Z" fill="#377C37"/>
<path d="M85.8441 197.427C85.613 201.088 82.5163 200.229 82.7242 203.347C82.9322 206.465 79.1168 203.882 79.7778 207.124C80.4387 210.365 78.6431 209.472 79.0429 211.369C79.4427 213.265 80.1984 215.547 80.1984 215.547C80.1984 215.547 78.8118 220.493 79.274 222.094C79.7362 223.694 79.616 225.794 79.445 227.274C79.274 228.754 80.4364 229.799 80.4364 229.799C80.4364 229.799 81.3608 226.213 82.1534 223.078C82.9461 219.943 81.2522 214.938 84.1686 212.999C87.085 211.06 91.1546 210.493 90.124 206.248C89.0933 202.003 91.3603 198.152 91.8757 196.825C92.391 195.498 89.9737 193.999 89.9737 193.999C89.9737 193.999 85.9873 195.294 85.8441 197.427Z" fill="#0E5110"/>
<path d="M87.4294 200.661C87.4294 200.661 81.3654 210.3 81.7259 214.57C82.0864 218.84 82.0587 221.489 82.0587 221.489C82.0587 221.489 83.2604 211.654 84.2749 209.136C85.2894 206.618 87.4294 200.661 87.4294 200.661Z" fill="#377C37"/>
<path d="M89.8608 201.608C89.6643 204.632 87.113 203.924 87.2864 206.507C87.4597 209.089 84.3075 206.948 84.8529 209.624C85.3983 212.301 83.9077 211.563 84.2451 213.135C84.5825 214.706 85.1972 216.588 85.1972 216.588C85.1972 216.588 84.0418 220.67 84.43 221.992C84.8182 223.314 84.7119 225.046 84.571 226.269C84.43 227.493 85.3867 228.356 85.3867 228.356C85.3867 228.356 86.147 225.396 86.808 222.804C87.4689 220.211 86.0615 216.09 88.4696 214.484C90.8776 212.878 94.247 212.414 93.3873 208.909C92.5276 205.404 94.4087 202.225 94.834 201.127C95.2592 200.029 93.2625 198.793 93.2625 198.793C93.2625 198.793 89.9763 199.847 89.8608 201.608Z" fill="#0E5110"/>
<path d="M91.1708 204.282C91.1708 204.282 86.1629 212.239 86.461 215.764C86.7592 219.289 86.7291 221.479 86.7291 221.479C86.7291 221.479 87.7274 213.364 88.564 211.277C89.4006 209.19 91.1708 204.282 91.1708 204.282Z" fill="#377C37"/>
<path d="M66.4111 199.968C66.5752 203.191 69.2998 202.486 69.0733 205.241C68.8469 207.997 72.2371 205.769 71.6154 208.608C70.9938 211.447 72.5814 210.693 72.2024 212.355C71.8234 214.018 71.1301 216.013 71.1301 216.013C71.1301 216.013 72.2856 220.384 71.8581 221.783C71.4305 223.181 71.5068 225.029 71.627 226.336C71.7471 227.643 70.7211 228.556 70.7211 228.556C70.7211 228.556 69.9608 225.386 69.3021 222.616C68.6435 219.846 70.208 215.478 67.6706 213.722C65.1332 211.965 61.5673 211.383 62.531 207.668C63.4947 203.954 61.5581 200.528 61.1213 199.351C60.6845 198.174 62.8337 196.884 62.8337 196.884C62.8337 196.884 66.3164 198.088 66.4111 199.968Z" fill="#0E5110"/>
<path d="M64.9717 202.787C64.9717 202.787 70.1713 211.361 69.7947 215.12C69.418 218.879 69.4157 221.201 69.4157 221.201C69.4157 221.201 68.4913 212.538 67.6293 210.301C66.7673 208.063 64.9717 202.787 64.9717 202.787Z" fill="#377C37"/>
<path d="M71.8071 226.701C71.8071 226.701 77.1663 213.808 78.9711 212.274" stroke="#EFE6DA" stroke-width="1.12219" stroke-miterlimit="10"/>
<path d="M79.5327 212.799C79.3987 213.107 79.0104 212.95 78.5482 212.72C78.0861 212.491 77.7209 212.276 77.855 211.98C77.989 211.684 78.4743 211.608 78.9388 211.837C79.4033 212.067 79.6668 212.491 79.5327 212.799Z" fill="#EFE6DA"/>
<path d="M73.1294 229.067C73.1294 229.067 77.2891 215.683 78.953 213.966" stroke="#EFE6DA" stroke-width="1.12219" stroke-miterlimit="10"/>
<path d="M79.5559 214.439C79.4496 214.762 79.0498 214.641 78.5692 214.461C78.0885 214.281 77.7072 214.106 77.8112 213.786C77.9152 213.465 78.3935 213.351 78.8765 213.539C79.3595 213.726 79.6622 214.121 79.5559 214.439Z" fill="#EFE6DA"/>
<path d="M70.4624 228.181C70.4624 228.181 74.6221 214.797 76.2837 213.081" stroke="#EFE6DA" stroke-width="1.12219" stroke-miterlimit="10"/>
<path d="M76.8891 213.556C76.7828 213.88 76.383 213.761 75.9023 213.579C75.4216 213.396 75.038 213.226 75.1443 212.903C75.2506 212.58 75.7267 212.469 76.2073 212.656C76.688 212.844 76.9954 213.236 76.8891 213.556Z" fill="#EFE6DA"/>
<path d="M73.1892 231.546C73.1892 231.546 77.3489 218.159 79.0128 216.445" stroke="#EFE6DA" stroke-width="1.12219" stroke-miterlimit="10"/>
<path d="M79.6185 216.918C79.5122 217.239 79.1124 217.121 78.6294 216.941C78.1464 216.76 77.7674 216.585 77.8737 216.265C77.98 215.944 78.4561 215.828 78.9368 216.018C79.4174 216.208 79.7225 216.588 79.6185 216.918Z" fill="#EFE6DA"/>
<path d="M74.22 230.401C74.22 230.401 78.3797 217.017 80.0436 215.3" stroke="#EFE6DA" stroke-width="1.12219" stroke-miterlimit="10"/>
<path d="M80.6469 215.784C80.5429 216.107 80.1431 215.986 79.6602 215.806C79.1772 215.626 78.7982 215.451 78.9045 215.13C79.0108 214.81 79.4845 214.696 79.9675 214.884C80.4505 215.071 80.7532 215.463 80.6469 215.784Z" fill="#EFE6DA"/>
<path d="M69.8291 226.778C69.8291 226.778 73.9888 213.394 75.6527 211.677" stroke="#EFE6DA" stroke-width="1.12219" stroke-miterlimit="10"/>
<path d="M76.2557 212.148C76.1517 212.471 75.7519 212.35 75.2689 212.17C74.786 211.99 74.407 211.817 74.511 211.494C74.6149 211.171 75.0933 211.06 75.5763 211.247C76.0593 211.435 76.362 211.83 76.2557 212.148Z" fill="#EFE6DA"/>
<path d="M73.9333 228.354C73.9333 228.354 79.2925 215.463 81.0973 213.926" stroke="#EFE6DA" stroke-width="1.12219" stroke-miterlimit="10"/>
<path d="M81.6587 214.462C81.5247 214.77 81.1364 214.612 80.6742 214.383C80.212 214.153 79.8469 213.939 79.9809 213.643C80.115 213.347 80.6003 213.27 81.0625 213.5C81.5247 213.729 81.7927 214.153 81.6587 214.462Z" fill="#EFE6DA"/>
<path d="M71.4954 227.72C71.4954 227.72 75.8238 214.4 77.5039 212.701" stroke="#EFE6DA" stroke-width="1.12219" stroke-miterlimit="10"/>
<path d="M78.1023 213.184C77.9937 213.504 77.5939 213.379 77.1155 213.184C76.6372 212.989 76.2558 212.819 76.3668 212.498C76.4777 212.177 76.9538 212.071 77.4321 212.251C77.9105 212.431 78.2109 212.863 78.1023 213.184Z" fill="#EFE6DA"/>
<path d="M73.7393 229.185C73.7393 229.185 78.0677 215.865 79.7478 214.166" stroke="#EFE6DA" stroke-width="1.12219" stroke-miterlimit="10"/>
<path d="M80.3511 214.649C80.2425 214.97 79.8427 214.844 79.3643 214.649C78.8859 214.454 78.5046 214.284 78.6155 213.963C78.7265 213.643 79.2025 213.537 79.6809 213.717C80.1593 213.897 80.462 214.328 80.3511 214.649Z" fill="#EFE6DA"/>
<path d="M71.8396 229.987C71.8396 229.987 75.9993 216.603 77.6632 214.886" stroke="#EFE6DA" stroke-width="1.12219" stroke-miterlimit="10"/>
<path d="M78.2689 215.355C78.1626 215.678 77.7628 215.557 77.2798 215.377C76.7968 215.197 76.4178 215.022 76.5241 214.701C76.6304 214.38 77.1065 214.267 77.5871 214.454C78.0678 214.642 78.3729 215.039 78.2689 215.355Z" fill="#EFE6DA"/>
<path d="M71.2756 230.189C71.2756 230.189 74.1643 216.472 75.6665 214.58" stroke="#EFE6DA" stroke-width="1.12219" stroke-miterlimit="10"/>
<path d="M76.3205 214.977C76.2443 215.308 75.8329 215.239 75.3291 215.115C74.8253 214.992 74.4279 214.869 74.5018 214.538C74.5758 214.208 75.0449 214.045 75.5487 214.161C76.0525 214.277 76.3968 214.649 76.3205 214.977Z" fill="#EFE6DA"/>
<path d="M69.2029 229.35C69.2029 229.35 73.3626 215.964 75.0242 214.247" stroke="#EFE6DA" stroke-width="1.12219" stroke-miterlimit="10"/>
<path d="M75.6298 214.723C75.5235 215.044 75.1237 214.925 74.643 214.745C74.1623 214.565 73.7787 214.39 73.885 214.069C73.9913 213.749 74.4674 213.633 74.9481 213.823C75.4287 214.013 75.7361 214.4 75.6298 214.723Z" fill="#EFE6DA"/>
<path d="M70.2058 229.703C70.2058 229.703 73.0945 215.986 74.5966 214.097" stroke="#EFE6DA" stroke-width="1.12219" stroke-miterlimit="10"/>
<path d="M75.2505 214.494C75.1766 214.822 74.7629 214.74 74.2615 214.632C73.76 214.523 73.3579 214.385 73.4341 214.052C73.5104 213.719 73.9772 213.559 74.4787 213.675C74.9802 213.791 75.3268 214.163 75.2505 214.494Z" fill="#EFE6DA"/>
<path d="M70.3237 230.939C70.3237 230.939 74.4835 217.552 76.1451 215.838" stroke="#EFE6DA" stroke-width="1.12219" stroke-miterlimit="10"/>
<path d="M76.7436 216.312C76.6373 216.633 76.2375 216.514 75.7568 216.334C75.2761 216.154 74.8925 215.979 74.9988 215.658C75.1051 215.338 75.5812 215.222 76.0618 215.412C76.5425 215.601 76.8568 215.991 76.7436 216.312Z" fill="#EFE6DA"/>
<path d="M69.7505 230.058C69.7505 230.058 71.7217 216.114 70.9707 213.778" stroke="#EFE6DA" stroke-width="1.12219" stroke-miterlimit="10"/>
<path d="M70.2312 213.912C70.1896 214.25 70.5963 214.336 71.1024 214.405C71.6085 214.474 72.0268 214.506 72.0638 214.158C72.1008 213.811 71.7287 213.49 71.2226 213.418C70.7165 213.347 70.2728 213.574 70.2312 213.912Z" fill="#EFE6DA"/>
<path d="M70.3516 229.232C70.3516 229.232 72.3228 215.286 71.5718 212.952" stroke="#EFE6DA" stroke-width="1.12219" stroke-miterlimit="10"/>
<path d="M70.832 213.083C70.7904 213.421 71.1949 213.509 71.701 213.576C72.2071 213.643 72.6254 213.677 72.6646 213.329C72.7039 212.982 72.3296 212.661 71.8235 212.589C71.3174 212.518 70.8736 212.745 70.832 213.083Z" fill="#EFE6DA"/>
<path d="M71.4424 230.576C71.4424 230.576 73.4136 216.63 72.6626 214.296" stroke="#EFE6DA" stroke-width="1.12219" stroke-miterlimit="10"/>
<path d="M71.9229 214.427C71.8813 214.765 72.288 214.854 72.7941 214.92C73.3002 214.987 73.7185 215.021 73.7554 214.674C73.7924 214.326 73.4227 214.005 72.9166 213.934C72.4105 213.862 71.9644 214.089 71.9229 214.427Z" fill="#EFE6DA"/>
<path d="M69.5796 228.297C69.5796 228.297 72.466 214.58 73.9704 212.688" stroke="#EFE6DA" stroke-width="1.12219" stroke-miterlimit="10"/>
<path d="M74.6196 213.088C74.5433 213.416 74.1296 213.335 73.6281 213.226C73.1267 213.117 72.7246 212.979 72.8008 212.646C72.8771 212.313 73.3439 212.153 73.8454 212.269C74.3469 212.385 74.6935 212.757 74.6196 213.088Z" fill="#EFE6DA"/>
<path d="M66.9543 223.001C66.9543 223.001 72.3135 210.108 74.1183 208.574" stroke="#EFE6DA" stroke-width="1.12219" stroke-miterlimit="10"/>
<path d="M74.6797 209.099C74.5457 209.408 74.1574 209.25 73.6952 209.02C73.233 208.791 72.8679 208.576 73.0019 208.28C73.136 207.984 73.6213 207.908 74.0858 208.137C74.5503 208.367 74.8137 208.791 74.6797 209.099Z" fill="#EFE6DA"/>
<path d="M68.2764 225.367C68.2764 225.367 72.4361 211.983 74.1 210.266" stroke="#EFE6DA" stroke-width="1.12219" stroke-miterlimit="10"/>
<path d="M74.7029 210.74C74.5966 211.063 74.1968 210.942 73.7161 210.762C73.2355 210.582 72.8541 210.407 72.9581 210.086C73.0621 209.765 73.5405 209.652 74.0235 209.839C74.5065 210.027 74.8092 210.421 74.7029 210.74Z" fill="#EFE6DA"/>
<path d="M65.6094 224.481C65.6094 224.481 69.7691 211.097 71.4307 209.38" stroke="#EFE6DA" stroke-width="1.12219" stroke-miterlimit="10"/>
<path d="M72.0361 209.856C71.9297 210.179 71.53 210.061 71.0493 209.878C70.5686 209.696 70.185 209.526 70.2913 209.203C70.3976 208.879 70.8736 208.768 71.3543 208.956C71.835 209.143 72.1424 209.536 72.0361 209.856Z" fill="#EFE6DA"/>
<path d="M68.3362 227.845C68.3362 227.845 72.4959 214.459 74.1598 212.745" stroke="#EFE6DA" stroke-width="1.12219" stroke-miterlimit="10"/>
<path d="M74.7652 213.219C74.6589 213.539 74.2591 213.421 73.7761 213.241C73.2931 213.061 72.9141 212.886 73.0204 212.565C73.1267 212.244 73.6028 212.128 74.0835 212.318C74.5642 212.508 74.8692 212.888 74.7652 213.219Z" fill="#EFE6DA"/>
<path d="M69.3669 226.701C69.3669 226.701 73.5267 213.317 75.1906 211.601" stroke="#EFE6DA" stroke-width="1.12219" stroke-miterlimit="10"/>
<path d="M75.7939 212.084C75.6899 212.407 75.2901 212.286 74.8071 212.106C74.3241 211.926 73.9451 211.751 74.0514 211.43C74.1578 211.109 74.6315 210.996 75.1145 211.183C75.5975 211.371 75.9002 211.763 75.7939 212.084Z" fill="#EFE6DA"/>
<path d="M64.9761 223.078C64.9761 223.078 69.1358 209.694 70.7997 207.977" stroke="#EFE6DA" stroke-width="1.12219" stroke-miterlimit="10"/>
<path d="M71.4029 208.448C71.299 208.771 70.8992 208.65 70.4162 208.47C69.9332 208.29 69.5542 208.118 69.6582 207.794C69.7622 207.471 70.2405 207.36 70.7235 207.548C71.2065 207.735 71.5093 208.13 71.4029 208.448Z" fill="#EFE6DA"/>
<path d="M69.0803 224.654C69.0803 224.654 74.4394 211.763 76.2443 210.227" stroke="#EFE6DA" stroke-width="1.12219" stroke-miterlimit="10"/>
<path d="M76.8059 210.762C76.6719 211.07 76.2836 210.912 75.8214 210.683C75.3592 210.453 74.9941 210.239 75.1282 209.943C75.2622 209.647 75.7475 209.57 76.2097 209.8C76.6719 210.029 76.94 210.453 76.8059 210.762Z" fill="#EFE6DA"/>
<path d="M66.6423 224.02C66.6423 224.02 70.9708 210.7 72.6508 209" stroke="#EFE6DA" stroke-width="1.12219" stroke-miterlimit="10"/>
<path d="M73.2493 209.484C73.1407 209.805 72.7409 209.679 72.2625 209.484C71.7841 209.289 71.4028 209.119 71.5137 208.798C71.6247 208.478 72.1007 208.372 72.5791 208.552C73.0575 208.732 73.3579 209.163 73.2493 209.484Z" fill="#EFE6DA"/>
<path d="M68.8862 225.485C68.8862 225.485 73.2147 212.165 74.8947 210.466" stroke="#EFE6DA" stroke-width="1.12219" stroke-miterlimit="10"/>
<path d="M75.4978 210.949C75.3892 211.27 74.9894 211.144 74.511 210.949C74.0327 210.755 73.6513 210.584 73.7623 210.264C73.8732 209.943 74.3493 209.837 74.8276 210.017C75.306 210.197 75.6087 210.629 75.4978 210.949Z" fill="#EFE6DA"/>
<path d="M66.9866 226.287C66.9866 226.287 71.1463 212.903 72.8102 211.186" stroke="#EFE6DA" stroke-width="1.12219" stroke-miterlimit="10"/>
<path d="M73.4156 211.655C73.3093 211.978 72.9095 211.857 72.4265 211.677C71.9435 211.497 71.5645 211.322 71.6708 211.001C71.7771 210.68 72.2532 210.567 72.7339 210.754C73.2146 210.942 73.5196 211.339 73.4156 211.655Z" fill="#EFE6DA"/>
<path d="M66.4226 226.489C66.4226 226.489 69.3113 212.772 70.8134 210.88" stroke="#EFE6DA" stroke-width="1.12219" stroke-miterlimit="10"/>
<path d="M71.4675 211.277C71.3912 211.608 70.9799 211.538 70.4761 211.415C69.9723 211.292 69.5748 211.168 69.6488 210.838C69.7227 210.507 70.1919 210.345 70.6956 210.461C71.1994 210.577 71.5438 210.949 71.4675 211.277Z" fill="#EFE6DA"/>
<path d="M64.3499 225.65C64.3499 225.65 68.5096 212.264 70.1712 210.547" stroke="#EFE6DA" stroke-width="1.12219" stroke-miterlimit="10"/>
<path d="M70.7768 211.023C70.6705 211.344 70.2707 211.226 69.79 211.046C69.3093 210.865 68.9257 210.69 69.032 210.37C69.1383 210.049 69.6144 209.933 70.095 210.123C70.5757 210.313 70.8831 210.7 70.7768 211.023Z" fill="#EFE6DA"/>
<path d="M65.3528 226.003C65.3528 226.003 68.2415 212.286 69.7436 210.396" stroke="#EFE6DA" stroke-width="1.12219" stroke-miterlimit="10"/>
<path d="M70.3975 210.794C70.3236 211.122 69.9099 211.041 69.4084 210.932C68.9069 210.824 68.5048 210.685 68.5811 210.352C68.6574 210.019 69.1242 209.859 69.6257 209.975C70.1271 210.091 70.4738 210.463 70.3975 210.794Z" fill="#EFE6DA"/>
<path d="M65.4707 227.239C65.4707 227.239 69.6304 213.853 71.292 212.138" stroke="#EFE6DA" stroke-width="1.12219" stroke-miterlimit="10"/>
<path d="M71.8903 212.612C71.784 212.932 71.3842 212.814 70.9035 212.634C70.4228 212.454 70.0392 212.279 70.1455 211.958C70.2518 211.637 70.7279 211.521 71.2086 211.711C71.6892 211.901 72.0035 212.291 71.8903 212.612Z" fill="#EFE6DA"/>
<path d="M64.8975 226.358C64.8975 226.358 66.8687 212.415 66.1176 210.079" stroke="#EFE6DA" stroke-width="1.12219" stroke-miterlimit="10"/>
<path d="M65.3782 210.212C65.3366 210.55 65.7433 210.636 66.2494 210.705C66.7555 210.774 67.1738 210.806 67.2108 210.458C67.2477 210.11 66.8757 209.79 66.3696 209.718C65.8635 209.647 65.4198 209.874 65.3782 210.212Z" fill="#EFE6DA"/>
<path d="M65.4985 225.532C65.4985 225.532 67.4698 211.586 66.7187 209.252" stroke="#EFE6DA" stroke-width="1.12219" stroke-miterlimit="10"/>
<path d="M65.979 209.383C65.9374 209.721 66.3418 209.81 66.8479 209.876C67.354 209.943 67.7723 209.977 67.8116 209.63C67.8509 209.282 67.4765 208.961 66.9704 208.89C66.4643 208.818 66.0206 209.045 65.979 209.383Z" fill="#EFE6DA"/>
<path d="M66.5891 226.876C66.5891 226.876 68.5604 212.93 67.8093 210.596" stroke="#EFE6DA" stroke-width="1.12219" stroke-miterlimit="10"/>
<path d="M67.0698 210.727C67.0282 211.065 67.435 211.154 67.9411 211.221C68.4472 211.287 68.8654 211.322 68.9024 210.974C68.9394 210.626 68.5696 210.305 68.0635 210.234C67.5574 210.162 67.1114 210.389 67.0698 210.727Z" fill="#EFE6DA"/>
<path d="M64.7263 224.597C64.7263 224.597 67.6127 210.88 69.1172 208.988" stroke="#EFE6DA" stroke-width="1.12219" stroke-miterlimit="10"/>
<path d="M69.7668 209.388C69.6905 209.716 69.2768 209.634 68.7754 209.526C68.2739 209.417 67.8718 209.279 67.948 208.946C68.0243 208.613 68.4911 208.453 68.9926 208.569C69.4941 208.685 69.8407 209.057 69.7668 209.388Z" fill="#EFE6DA"/>
<path d="M94.6303 211.48C94.6974 211.14 94.787 210.805 94.8984 210.478C95.3421 209.156 96.0539 208.046 96.4513 207.957C96.6336 207.916 96.8224 207.921 97.0024 207.973C97.1823 208.024 97.3483 208.12 97.4867 208.253C97.0938 208.96 96.7374 209.688 96.419 210.436C95.4946 212.558 96.7656 213.707 97.8449 214.257C98.5821 214.632 100.6 214.464 101.808 214.319C101.926 214.726 101.963 215.154 101.917 215.577C101.81 216.564 101.529 217.02 99.6659 217.04C99.5342 217.04 99.4001 217.04 99.2661 217.04C98.7026 217.02 98.1439 216.922 97.6045 216.746C97.2226 216.621 96.8575 216.444 96.5184 216.218C96.1198 215.955 95.7659 215.621 95.4715 215.232C95.2253 214.911 95.0187 214.558 94.8568 214.181C94.7921 214.033 94.7297 213.872 94.6742 213.707C94.5696 213.39 94.5142 213.057 94.5101 212.72C94.5039 212.303 94.5443 211.887 94.6303 211.48Z" fill="#F4D3CE"/>
<path d="M98.6123 215.133C99.2455 215.064 99.1253 215.675 99.2108 216.556C99.2247 216.721 99.2455 216.879 99.2663 217.032C98.7028 217.013 98.1441 216.914 97.6047 216.739C97.5677 215.907 98.0045 215.199 98.6123 215.133Z" fill="#E88C80"/>
<path d="M95.4622 215.224C95.7603 214.686 96.2895 214.415 96.7216 214.607C97.2046 214.827 96.8926 215.214 96.6292 215.885C96.5853 215.993 96.546 216.104 96.509 216.208C96.1107 215.945 95.7567 215.612 95.4622 215.224Z" fill="#E88C80"/>
<path d="M94.5103 212.718C94.678 212.599 94.877 212.542 95.0779 212.553C95.2788 212.564 95.471 212.643 95.6264 212.78C95.98 213.152 95.5779 213.379 95.125 213.87C95.0325 213.969 94.9424 214.075 94.8569 214.173C94.7922 214.025 94.7298 213.865 94.6743 213.7C94.5703 213.384 94.5148 213.052 94.5103 212.718Z" fill="#E88C80"/>
<path d="M94.6304 211.479C94.6975 211.139 94.7871 210.805 94.8984 210.478C95.3606 210.443 95.7512 210.725 95.7743 211.102C95.7974 211.479 95.4831 211.403 95.0209 211.437C94.8846 211.447 94.7505 211.467 94.6304 211.479Z" fill="#E88C80"/>
<path d="M96.4191 210.436C96.7374 209.688 97.0938 208.959 97.4867 208.253C97.5722 208.325 97.6406 208.417 97.6863 208.523C97.7321 208.628 97.754 208.744 97.7502 208.86C97.697 209.353 97.2395 209.294 96.976 211.746C96.7126 214.198 99.8046 213.581 100.748 213.448C101.298 213.371 101.642 213.776 101.808 214.318C100.6 214.464 98.5729 214.632 97.8449 214.257C96.7657 213.707 95.4947 212.557 96.4191 210.436Z" fill="#EAC8C5"/>
<path d="M97.7502 208.86C97.7502 208.86 100.08 206.662 99.6983 205.87C99.5504 205.562 98.2401 206.458 98.1893 206.929C98.1893 206.929 98.834 205.269 98.6029 205.241C98.3718 205.214 96.4468 207.331 96.4514 207.955L97.7502 208.86Z" fill="#D15F56"/>
<path d="M97.9489 206.154C97.9489 206.154 97.3711 207.343 97.3457 208.011L97.9489 206.154Z" fill="#BF4E49"/>
<path d="M98.9844 206.832C98.9844 206.832 97.9214 207.542 97.5793 208.102L98.9844 206.832Z" fill="#BF4E49"/>
<path d="M96.3036 214.368C96.3723 214.033 96.4618 213.703 96.5717 213.381C97.0154 212.057 97.7271 210.947 98.1269 210.86C98.3073 210.817 98.4949 210.819 98.6743 210.867C98.8538 210.915 99.0201 211.007 99.1599 211.137C98.766 211.843 98.4088 212.572 98.09 213.32C97.1656 215.443 98.4389 216.59 99.5158 217.143C100.253 217.518 102.273 217.35 103.481 217.205C103.598 217.611 103.634 218.038 103.588 218.46C103.484 219.447 103.202 219.903 101.337 219.923C101.205 219.923 101.073 219.923 100.939 219.923C100.376 219.904 99.8167 219.804 99.2778 219.627C98.8957 219.503 98.5305 219.327 98.1916 219.101C97.7923 218.838 97.4375 218.504 97.1425 218.115C96.8976 217.794 96.6918 217.442 96.5301 217.066C96.4653 216.916 96.403 216.756 96.3452 216.59C96.2414 216.273 96.1867 215.94 96.1834 215.604C96.1776 215.188 96.2179 214.773 96.3036 214.368Z" fill="#F4D3CE"/>
<path d="M100.285 218.018C100.918 217.947 100.801 218.559 100.884 219.442C100.9 219.604 100.921 219.762 100.942 219.918C100.378 219.899 99.819 219.799 99.28 219.622C99.243 218.79 99.6798 218.083 100.285 218.018Z" fill="#E88C80"/>
<path d="M97.1445 218.107C97.445 217.572 97.9742 217.298 98.404 217.493C98.887 217.71 98.5773 218.1 98.3116 218.771C98.27 218.879 98.2307 218.988 98.1937 219.094C97.7943 218.83 97.4396 218.497 97.1445 218.107Z" fill="#E88C80"/>
<path d="M96.1855 215.602C96.3528 215.483 96.5514 215.425 96.752 215.436C96.9526 215.447 97.1445 215.527 97.2994 215.663C97.653 216.033 97.2532 216.26 96.8003 216.751C96.7078 216.852 96.6177 216.956 96.5322 217.057C96.4675 216.906 96.4051 216.746 96.3473 216.581C96.2442 216.266 96.1896 215.935 96.1855 215.602Z" fill="#E88C80"/>
<path d="M96.3037 214.368C96.3724 214.033 96.462 213.703 96.5718 213.381C97.034 213.344 97.4245 213.628 97.4499 214.005C97.4754 214.383 97.1565 214.304 96.6943 214.338L96.3037 214.368Z" fill="#E88C80"/>
<path d="M98.0921 213.32C98.4102 212.572 98.7667 211.843 99.1598 211.137C99.2449 211.21 99.3129 211.303 99.3587 211.408C99.4044 211.514 99.4265 211.63 99.4232 211.746C99.3701 212.239 98.9102 212.18 98.649 214.629C98.3879 217.079 101.471 216.465 102.423 216.341C102.973 216.265 103.315 216.669 103.484 217.215C102.275 217.36 100.248 217.528 99.518 217.153C98.4411 216.588 97.1677 215.443 98.0921 213.32Z" fill="#EAC8C5"/>
<path d="M99.4257 211.746C99.4257 211.746 101.753 209.546 101.374 208.756C101.224 208.445 99.9156 209.341 99.8648 209.812C99.8648 209.812 100.507 208.154 100.278 208.125C100.05 208.095 98.1223 210.214 98.127 210.838L99.4257 211.746Z" fill="#D15F56"/>
<path d="M99.6222 209.04C99.6222 209.04 99.0468 210.226 99.019 210.895L99.6222 209.04Z" fill="#BF4E49"/>
<path d="M100.657 209.718C100.657 209.718 99.5944 210.426 99.2546 210.989L100.657 209.718Z" fill="#BF4E49"/>
<path d="M91.6931 212.775C91.7612 212.436 91.8508 212.102 91.9611 211.776C92.4048 210.451 93.1166 209.341 93.5141 209.255C93.6965 209.213 93.8856 209.218 94.0659 209.269C94.2462 209.32 94.4127 209.416 94.5517 209.548C94.1578 210.254 93.8006 210.983 93.4817 211.731C92.5574 213.855 93.8307 215.002 94.9076 215.555C95.6448 215.93 97.6623 215.762 98.8732 215.616C98.9896 216.022 99.0257 216.45 98.9795 216.872C98.8755 217.858 98.5913 218.315 96.7286 218.334C96.5969 218.334 96.4652 218.334 96.3288 218.334C95.7651 218.315 95.2063 218.216 94.6673 218.038C94.2851 217.915 93.9199 217.738 93.5811 217.513C93.1817 217.25 92.827 216.916 92.5319 216.526C92.287 216.206 92.0812 215.854 91.9195 215.478C91.8525 215.328 91.7924 215.167 91.7346 215.002C91.6308 214.685 91.5762 214.351 91.5729 214.015C91.5667 213.598 91.607 213.182 91.6931 212.775Z" fill="#F4D3CE"/>
<path d="M95.6748 216.43C96.308 216.358 96.1901 216.97 96.2733 217.853C96.2895 218.016 96.3103 218.174 96.3288 218.329C95.765 218.31 95.2062 218.211 94.6672 218.033C94.6326 217.202 95.067 216.494 95.6748 216.43Z" fill="#E88C80"/>
<path d="M92.5344 216.519C92.8348 215.983 93.3641 215.71 93.7939 215.905C94.2769 216.122 93.9672 216.511 93.7015 217.182C93.6599 217.291 93.6206 217.399 93.5836 217.505C93.1842 217.242 92.8295 216.908 92.5344 216.519Z" fill="#E88C80"/>
<path d="M91.5752 214.015C91.7425 213.896 91.9411 213.838 92.1417 213.849C92.3423 213.861 92.5342 213.94 92.6891 214.077C93.0427 214.447 92.6406 214.674 92.1899 215.165C92.0975 215.266 92.0073 215.369 91.9218 215.47C91.8548 215.32 91.7947 215.16 91.737 214.994C91.6339 214.679 91.5792 214.349 91.5752 214.015Z" fill="#E88C80"/>
<path d="M91.6931 212.775C91.7613 212.436 91.8509 212.102 91.9612 211.776C92.4234 211.739 92.8139 212.022 92.8394 212.4C92.8648 212.777 92.5459 212.698 92.0837 212.733L91.6931 212.775Z" fill="#E88C80"/>
<path d="M93.4818 211.731C93.8006 210.983 94.1578 210.255 94.5517 209.548C94.6368 209.621 94.7049 209.714 94.7506 209.82C94.7963 209.926 94.8184 210.041 94.8152 210.158C94.762 210.651 94.3021 210.592 94.041 213.041C93.7799 215.49 96.8673 214.876 97.8125 214.743C98.3625 214.667 98.7045 215.071 98.8732 215.616C97.6623 215.762 95.6379 215.93 94.9076 215.555C93.8307 215.002 92.5574 213.855 93.4818 211.731Z" fill="#EAC8C5"/>
<path d="M94.8152 210.157C94.8152 210.157 97.1424 207.957 96.7634 207.168C96.6132 206.857 95.3052 207.752 95.2543 208.224C95.2543 208.224 95.8968 206.566 95.668 206.536C95.4392 206.507 93.5095 208.626 93.5142 209.25L94.8152 210.157Z" fill="#D15F56"/>
<path d="M95.0302 207.479C95.0302 207.479 94.4547 208.665 94.427 209.333L95.0302 207.479Z" fill="#BF4E49"/>
<path d="M96.0656 208.157C96.0656 208.157 95.0002 208.867 94.6628 209.434L96.0656 208.157Z" fill="#BF4E49"/>
<path d="M86.0128 216.847C86.013 217.065 85.9881 217.282 85.9388 217.493C85.8264 217.931 85.62 218.334 85.336 218.672C85.0519 219.009 84.6981 219.271 84.3026 219.437C83.9286 219.601 83.5282 219.684 83.1241 219.684C81.5295 219.684 80.2354 218.413 80.2354 216.847C80.2354 215.345 80.8732 213.209 82.9623 213.253C83.0501 213.253 83.1449 213.253 83.2396 213.27C83.6128 213.31 83.9809 213.392 84.3373 213.517C86.0035 214.094 86.0128 215.525 86.0128 216.847Z" fill="#CEBFBE"/>
<path d="M87.1684 216.6C87.168 216.983 87.0891 217.361 86.9373 217.708C86.595 217.696 86.2568 217.623 85.9367 217.493C85.986 217.282 86.0109 217.065 86.0107 216.847C86.0107 215.525 86.0107 214.094 84.3352 213.505C84.3759 213.345 84.4261 213.189 84.4854 213.036C87.1546 213.357 87.1684 215.051 87.1684 216.6Z" fill="#B2A4A4"/>
<path d="M86.0128 217.834C86.013 218.051 85.9882 218.268 85.9389 218.48C85.4292 218.286 84.9866 217.932 84.6697 217.465C84.3527 216.997 84.1764 216.437 84.1641 215.86C84.1637 215.398 84.222 214.937 84.3374 214.491C86.0036 215.081 86.0128 216.511 86.0128 217.834Z" fill="#CEBFBE"/>
<path d="M89.9416 214.874C89.9416 216.44 88.6474 217.71 87.0528 217.71H86.9396C87.0914 217.363 87.1703 216.985 87.1707 216.603C87.1707 215.054 87.1568 213.359 84.49 213.038C84.8898 211.995 85.7032 211.144 87.1707 211.312C89.9277 211.59 89.9416 213.307 89.9416 214.874Z" fill="#CEBFBE"/>
<path d="M92.0214 217.34C92.0209 217.723 91.942 218.101 91.7903 218.447C91.4479 218.435 91.1098 218.363 90.7896 218.233C90.8389 218.021 90.8638 217.804 90.8636 217.587C90.8636 216.264 90.8636 214.834 89.1881 214.244C89.2089 214.163 88.0142 214.03 88.0904 213.998C89.0148 213.751 88.7837 213.751 89.3383 213.751C92.0075 214.096 92.0214 215.791 92.0214 217.34Z" fill="#D1CBCB"/>
<path d="M89.1903 214.245C88.834 214.12 88.4659 214.037 88.0926 213.998C87.9979 213.998 87.9031 213.981 87.8153 213.981C85.7354 213.936 85.0884 216.072 85.0884 217.575C85.0884 219.141 86.3825 220.411 87.9771 220.411C88.3813 220.412 88.7817 220.328 89.1557 220.165C89.5512 219.999 89.905 219.736 90.189 219.399C90.473 219.062 90.6794 218.658 90.7918 218.221C90.8411 218.009 90.866 217.792 90.8658 217.575C90.8658 216.265 90.8565 214.834 89.1903 214.245Z" fill="#8C8585"/>
<path d="M94.7946 215.614C94.7946 217.18 93.5004 218.45 91.9059 218.45H91.7926C91.9444 218.104 92.0233 217.726 92.0237 217.343C92.0237 215.794 92.0099 214.099 89.343 213.779C89.7428 212.735 90.5563 211.884 92.0237 212.052C94.7807 212.331 94.7946 214.047 94.7946 215.614Z" fill="#E8E6E6"/>
<path opacity="0.53" d="M93.5582 217.389C87.753 216.455 84.8574 216.723 80.9288 218.45C76.7228 220.298 70.8345 223.29 70.9916 224.863C71.1488 226.437 73.0253 224.064 73.7971 224.656C74.569 225.248 86.6738 221.116 90.1056 221.504C93.5374 221.891 99.7331 218.386 93.5582 217.389Z" fill="#994633"/>
<path d="M95.0442 217.821C89.2391 216.877 87.009 216.835 83.0272 219.326C79.0454 221.817 73.929 222.155 74.0769 223.8C74.2248 225.446 74.472 224.928 75.2323 225.544C75.9927 226.161 88.1368 221.768 91.5685 222.145C95.0003 222.523 101.217 218.825 95.0442 217.821Z" fill="#BC5C3F"/>
<path d="M86.0059 219.111C85.9042 218.956 88.2452 218.371 90.6278 218.27C92.6499 218.177 94.7298 218.487 94.9863 218.884C93.4629 218.579 91.9143 218.439 90.3644 218.468C88.1574 218.561 86.096 219.254 86.0059 219.111Z" fill="#EFDBD3"/>
<path d="M77.943 222.385C77.9083 222.488 79.3527 222.16 80.7439 221.6C81.9317 221.122 83.0895 220.426 83.1773 220.165C82.3424 220.71 81.4667 221.181 80.559 221.573C79.2857 222.096 77.973 222.291 77.943 222.385Z" fill="#EFDBD3"/>
<path d="M88.5804 219.864C88.592 220.069 89.1559 219.953 89.8561 219.911C90.5563 219.869 91.1179 219.664 91.1063 219.464C91.0948 219.264 90.5309 219.375 89.8307 219.417C89.1304 219.459 88.5712 219.659 88.5804 219.864Z" fill="#EFDBD3"/>
<path d="M85.7724 220.014C85.784 220.219 86.1999 220.113 86.7176 220.083C87.2353 220.054 87.642 219.861 87.642 219.656C87.642 219.452 87.2145 219.558 86.6968 219.59C86.1792 219.622 85.7562 219.812 85.7724 220.014Z" fill="#EFDBD3"/>
<path d="M86.7893 221.381C86.8008 221.585 87.2168 221.479 87.7345 221.447C88.2521 221.415 88.6589 221.228 88.6589 221.023C88.6589 220.818 88.2336 220.924 87.716 220.956C87.1983 220.989 86.7777 221.178 86.7893 221.381Z" fill="#EFDBD3"/>
<path d="M83.5979 221.42C83.6464 221.618 84.0347 221.42 84.5385 221.292C85.0423 221.164 85.4097 220.882 85.3635 220.685C85.3173 220.488 84.9267 220.685 84.4229 220.813C83.9191 220.942 83.5517 221.223 83.5979 221.42Z" fill="#EFDBD3"/>
<path d="M80.9888 222.508C81.0512 222.7 81.384 222.493 81.8231 222.333C82.2622 222.172 82.5695 221.884 82.5164 221.691C82.4632 221.499 82.1212 221.691 81.6821 221.867C81.243 222.042 80.9264 222.311 80.9888 222.508Z" fill="#EFDBD3"/>
<path d="M76.3714 223.82C76.4107 224.02 76.7643 223.862 77.2195 223.763C77.6748 223.665 78.0145 223.423 77.9775 223.223C77.9406 223.023 77.5847 223.181 77.1294 223.28C76.6741 223.379 76.3344 223.62 76.3714 223.82Z" fill="#EFDBD3"/>
<path d="M78.7472 223.366C78.7841 223.566 79.0245 223.433 79.3365 223.366C79.6484 223.3 79.8749 223.08 79.8356 222.873C79.7963 222.666 79.5583 222.806 79.2463 222.873C78.9343 222.94 78.7102 223.166 78.7472 223.366Z" fill="#EFDBD3"/>
<path d="M80.1106 223.81C80.1568 224.008 80.3902 223.862 80.6999 223.776C81.0095 223.689 81.2221 223.465 81.1759 223.265C81.1297 223.065 80.8963 223.213 80.5866 223.3C80.2769 223.386 80.0643 223.613 80.1106 223.81Z" fill="#EFDBD3"/>
<path d="M91.2402 221.21C91.2101 221.412 91.4712 221.375 91.7925 221.43C92.1137 221.484 92.3887 221.366 92.4187 221.163C92.4488 220.961 92.1876 220.998 91.8664 220.944C91.5452 220.89 91.2702 221.008 91.2402 221.21Z" fill="#EFDBD3"/>
<path d="M82.9832 222.873C83.0155 223.073 83.3737 222.925 83.8313 222.839C84.2889 222.752 84.6355 222.52 84.6008 222.318C84.5662 222.116 84.2103 222.266 83.7527 222.353C83.2951 222.439 82.9462 222.671 82.9832 222.873Z" fill="#EFDBD3"/>
<path d="M92.9201 220.266C92.8485 220.688 93.4748 220.633 94.2143 220.774C94.9538 220.915 95.6009 220.685 95.6771 220.266C95.7534 219.847 95.4922 219.506 94.7527 219.366C94.0132 219.225 92.9918 219.844 92.9201 220.266Z" fill="#EFDBD3"/>
<path d="M89.2668 218.687C83.4154 218.134 81.19 218.245 77.3538 220.998C73.5176 223.751 68.4404 224.437 68.6877 226.067C68.9349 227.698 69.1498 227.167 69.9517 227.73C70.7537 228.292 82.6043 223.085 86.0545 223.24C89.5048 223.396 95.4856 219.276 89.2668 218.687Z" fill="#BC5C3F"/>
<path d="M80.3233 220.586C80.2147 220.438 82.5141 219.708 84.8759 219.437C86.8887 219.205 88.9848 219.378 89.2667 219.755C87.7265 219.552 86.1708 219.517 84.624 219.652C82.4378 219.891 80.4227 220.722 80.3233 220.586Z" fill="#EFDBD3"/>
<path d="M72.4682 224.397C72.4404 224.501 73.8548 224.079 75.2205 223.423C76.376 222.866 77.4899 222.096 77.5615 221.83C76.7609 222.431 75.9144 222.96 75.031 223.411C73.7831 224.02 72.4936 224.301 72.4682 224.397Z" fill="#EFDBD3"/>
<path d="M82.9369 221.164C82.96 221.366 83.5169 221.213 84.2125 221.124C84.9081 221.035 85.4581 220.799 85.435 220.596C85.4119 220.394 84.855 220.544 84.1594 220.633C83.4638 220.722 82.9161 220.961 82.9369 221.164Z" fill="#EFDBD3"/>
<path d="M80.1452 221.504C80.1684 221.706 80.5751 221.573 81.0904 221.504C81.6058 221.435 82.0148 221.221 81.9825 221.011C81.9501 220.801 81.5526 220.942 81.0373 221.011C80.5219 221.08 80.1221 221.302 80.1452 221.504Z" fill="#EFDBD3"/>
<path d="M81.2383 222.799C81.2614 223.001 81.6705 222.868 82.1858 222.799C82.7012 222.73 83.1102 222.515 83.0779 222.305C83.0455 222.096 82.6457 222.236 82.1304 222.305C81.615 222.374 81.2175 222.596 81.2383 222.799Z" fill="#EFDBD3"/>
<path d="M78.0562 223.053C78.1163 223.248 78.493 223.031 78.9806 222.86C79.4682 222.69 79.8264 222.394 79.7663 222.199C79.7063 222.005 79.3319 222.222 78.842 222.392C78.352 222.562 77.9985 222.858 78.0562 223.053Z" fill="#EFDBD3"/>
<path d="M75.5163 224.311C75.5903 224.501 75.9092 224.271 76.339 224.081C76.7689 223.891 77.0554 223.588 76.9838 223.393C76.9122 223.198 76.5909 223.435 76.1611 223.625C75.7313 223.815 75.4447 224.123 75.5163 224.311Z" fill="#EFDBD3"/>
<path d="M70.9868 225.934C71.0376 226.131 71.3819 225.949 71.8303 225.821C72.2786 225.692 72.6021 225.428 72.5536 225.231C72.5051 225.034 72.1584 225.216 71.7101 225.344C71.2618 225.473 70.9382 225.737 70.9868 225.934Z" fill="#EFDBD3"/>
<path d="M73.3301 225.322C73.381 225.52 73.6098 225.369 73.9194 225.28C74.2291 225.191 74.4371 224.962 74.3816 224.765C74.3262 224.567 74.102 224.715 73.7923 224.804C73.4827 224.893 73.277 225.125 73.3301 225.322Z" fill="#EFDBD3"/>
<path d="M74.7168 225.673C74.7769 225.867 74.9988 225.705 75.3038 225.601C75.6089 225.497 75.8076 225.253 75.7475 225.058C75.6874 224.864 75.4656 225.026 75.1605 225.13C74.8555 225.234 74.6637 225.468 74.7168 225.673Z" fill="#EFDBD3"/>
<path d="M85.6706 222.328C85.6521 222.533 85.9179 222.479 86.2345 222.511C86.5511 222.543 86.8261 222.407 86.8446 222.202C86.863 221.998 86.5973 222.052 86.2807 222.02C85.9641 221.988 85.6891 222.126 85.6706 222.328Z" fill="#EFDBD3"/>
<path d="M77.5246 224.543C77.5685 224.743 77.9174 224.57 78.3704 224.452C78.8233 224.333 79.1515 224.082 79.1076 223.882C79.0637 223.682 78.7124 223.857 78.2618 223.973C77.8111 224.089 77.4783 224.346 77.5246 224.543Z" fill="#EFDBD3"/>
<path d="M87.293 221.274C87.2491 221.701 87.8707 221.605 88.6148 221.696C89.359 221.788 90.0014 221.514 90.0453 221.087C90.0892 220.66 89.8142 220.347 89.0701 220.253C88.326 220.16 87.3392 220.848 87.293 221.274Z" fill="#EFDBD3"/>
<path d="M98.0483 219.427C92.1969 218.875 89.9715 218.986 86.1353 221.738C82.2991 224.491 77.2219 225.177 77.4691 226.807C77.7164 228.438 77.9313 227.907 78.7332 228.47C79.5351 229.032 91.3858 223.825 94.836 223.981C98.2863 224.136 104.267 220.017 98.0483 219.427Z" fill="#BC5C3F"/>
<path d="M89.105 221.326C88.9964 221.178 91.2958 220.448 93.6576 220.177C95.6705 219.945 97.7665 220.118 98.0485 220.495C96.5082 220.292 94.9526 220.257 93.4057 220.391C91.2196 220.631 89.2044 221.462 89.105 221.326Z" fill="#EFDBD3"/>
<path d="M81.2499 225.137C81.2222 225.241 82.6365 224.819 84.0023 224.163C85.1578 223.605 86.2716 222.836 86.3433 222.569C85.5426 223.171 84.6961 223.7 83.8128 224.15C82.5649 224.76 81.2753 225.041 81.2499 225.137Z" fill="#EFDBD3"/>
<path d="M91.7186 221.903C91.7417 222.106 92.2986 221.953 92.9942 221.864C93.6898 221.775 94.2398 221.538 94.2167 221.336C94.1936 221.134 93.6367 221.284 92.9411 221.373C92.2455 221.462 91.6978 221.701 91.7186 221.903Z" fill="#EFDBD3"/>
<path d="M88.9267 222.244C88.9498 222.446 89.3566 222.313 89.8719 222.244C90.3873 222.175 90.7963 221.96 90.764 221.751C90.7316 221.541 90.3341 221.682 89.8188 221.751C89.3034 221.82 88.9036 222.042 88.9267 222.244Z" fill="#EFDBD3"/>
<path d="M90.0201 223.539C90.0432 223.741 90.4522 223.608 90.9676 223.539C91.4829 223.47 91.8919 223.255 91.8596 223.046C91.8272 222.836 91.4274 222.976 90.9121 223.046C90.3968 223.115 89.9993 223.337 90.0201 223.539Z" fill="#EFDBD3"/>
<path d="M86.838 223.793C86.8981 223.988 87.2747 223.771 87.7624 223.601C88.25 223.431 88.6082 223.135 88.5481 222.94C88.488 222.745 88.1136 222.962 87.6237 223.132C87.1338 223.302 86.7802 223.598 86.838 223.793Z" fill="#EFDBD3"/>
<path d="M84.2981 225.051C84.372 225.241 84.6909 225.012 85.1208 224.822C85.5506 224.632 85.8372 224.328 85.7655 224.133C85.6939 223.939 85.3727 224.175 84.9428 224.365C84.513 224.555 84.2264 224.864 84.2981 225.051Z" fill="#EFDBD3"/>
<path d="M79.7685 226.674C79.8193 226.871 80.1637 226.689 80.612 226.56C81.0603 226.432 81.3839 226.168 81.3353 225.971C81.2868 225.773 80.9402 225.956 80.4918 226.084C80.0435 226.212 79.72 226.476 79.7685 226.674Z" fill="#EFDBD3"/>
<path d="M82.1119 226.062C82.1627 226.26 82.3915 226.109 82.7012 226.02C83.0108 225.932 83.2188 225.702 83.1634 225.505C83.1079 225.308 82.8837 225.456 82.5741 225.544C82.2644 225.633 82.0587 225.865 82.1119 226.062Z" fill="#EFDBD3"/>
<path d="M83.4986 226.413C83.5587 226.608 83.7805 226.445 84.0856 226.341C84.3906 226.238 84.5893 225.993 84.5293 225.799C84.4692 225.604 84.2473 225.767 83.9423 225.87C83.6372 225.974 83.4454 226.208 83.4986 226.413Z" fill="#EFDBD3"/>
<path d="M94.4526 223.068C94.4341 223.273 94.6998 223.218 95.0164 223.25C95.333 223.282 95.608 223.147 95.6265 222.942C95.645 222.737 95.3793 222.792 95.0627 222.76C94.7461 222.727 94.4711 222.866 94.4526 223.068Z" fill="#EFDBD3"/>
<path d="M86.306 225.283C86.35 225.483 86.6989 225.31 87.1519 225.191C87.6048 225.073 87.933 224.821 87.8891 224.622C87.8451 224.422 87.4939 224.597 87.0432 224.713C86.5926 224.829 86.2598 225.085 86.306 225.283Z" fill="#EFDBD3"/>
<path d="M96.0747 222.014C96.0308 222.441 96.6524 222.345 97.3966 222.436C98.1407 222.527 98.7832 222.253 98.8271 221.827C98.871 221.4 98.596 221.087 97.8518 220.993C97.1077 220.899 96.1209 221.588 96.0747 222.014Z" fill="#EFDBD3"/>
<path opacity="0.53" d="M92.9202 220.88C87.1127 219.935 84.8849 219.893 80.9031 222.385C76.9214 224.876 71.791 225.221 71.9389 226.859C72.0868 228.497 72.3341 227.986 73.0944 228.603C73.8547 229.22 85.9965 224.822 89.4306 225.206C92.8647 225.591 99.0881 221.886 92.9202 220.88Z" fill="#994633"/>
<path d="M94.3506 221.768C88.5455 220.823 86.3154 220.781 82.3336 223.272C78.3518 225.764 73.2354 226.101 73.3833 227.747C73.5312 229.392 73.7784 228.874 74.5387 229.491C75.2991 230.107 87.4432 225.714 90.8749 226.092C94.3067 226.469 100.523 222.772 94.3506 221.768Z" fill="#BC5C3F"/>
<path d="M85.3125 223.058C85.2108 222.902 87.5518 222.33 89.9345 222.217C91.9565 222.123 94.0364 222.434 94.2929 222.831C92.7695 222.525 91.2209 222.385 89.671 222.414C87.464 222.508 85.4027 223.201 85.3125 223.058Z" fill="#EFDBD3"/>
<path d="M77.2496 226.331C77.215 226.435 78.6593 226.107 80.0505 225.547C81.2384 225.068 82.3962 224.373 82.484 224.111C81.6491 224.657 80.7733 225.128 79.8656 225.52C78.5923 226.043 77.2797 226.238 77.2496 226.331Z" fill="#EFDBD3"/>
<path d="M87.8871 223.81C87.8986 224.015 88.4625 223.899 89.1627 223.857C89.863 223.815 90.4245 223.61 90.413 223.411C90.4014 223.211 89.8375 223.322 89.1373 223.364C88.4371 223.406 87.8778 223.605 87.8871 223.81Z" fill="#EFDBD3"/>
<path d="M85.0791 223.961C85.0906 224.166 85.5066 224.059 86.0242 224.03C86.5419 224 86.9486 223.808 86.9486 223.603C86.9486 223.398 86.5211 223.504 86.0034 223.537C85.4858 223.569 85.0629 223.759 85.0791 223.961Z" fill="#EFDBD3"/>
<path d="M86.0959 225.328C86.1075 225.532 86.5235 225.426 87.0411 225.394C87.5588 225.362 87.9655 225.175 87.9655 224.97C87.9655 224.765 87.5403 224.871 87.0226 224.903C86.505 224.935 86.0844 225.125 86.0959 225.328Z" fill="#EFDBD3"/>
<path d="M82.9043 225.367C82.9528 225.564 83.3411 225.367 83.8449 225.239C84.3487 225.11 84.7161 224.829 84.6699 224.632C84.6237 224.435 84.2331 224.632 83.7293 224.76C83.2255 224.888 82.8581 225.17 82.9043 225.367Z" fill="#EFDBD3"/>
<path d="M80.2955 226.455C80.3578 226.647 80.6906 226.44 81.1297 226.28C81.5688 226.119 81.8762 225.831 81.823 225.638C81.7698 225.446 81.4278 225.638 80.9887 225.813C80.5497 225.989 80.2331 226.257 80.2955 226.455Z" fill="#EFDBD3"/>
<path d="M75.6783 227.767C75.7176 227.967 76.0712 227.809 76.5264 227.71C76.9817 227.611 77.3214 227.37 77.2844 227.17C77.2474 226.97 76.8915 227.128 76.4363 227.227C75.981 227.325 75.6413 227.567 75.6783 227.767Z" fill="#EFDBD3"/>
<path d="M78.054 227.313C78.091 227.513 78.3314 227.38 78.6433 227.313C78.9553 227.246 79.1818 227.027 79.1425 226.82C79.1032 226.612 78.8652 226.753 78.5532 226.82C78.2412 226.886 78.0171 227.113 78.054 227.313Z" fill="#EFDBD3"/>
<path d="M79.4172 227.757C79.4634 227.954 79.6968 227.808 80.0065 227.722C80.3162 227.636 80.5288 227.411 80.4826 227.212C80.4363 227.012 80.2029 227.16 79.8933 227.246C79.5836 227.332 79.371 227.559 79.4172 227.757Z" fill="#EFDBD3"/>
<path d="M90.547 225.157C90.517 225.359 90.7781 225.322 91.0994 225.377C91.4206 225.431 91.6956 225.312 91.7256 225.11C91.7557 224.908 91.4945 224.945 91.1733 224.891C90.8521 224.836 90.5771 224.955 90.547 225.157Z" fill="#EFDBD3"/>
<path d="M82.29 226.819C82.3224 227.019 82.6806 226.871 83.1382 226.785C83.5957 226.698 83.9424 226.467 83.9077 226.264C83.8731 226.062 83.5172 226.213 83.0596 226.299C82.602 226.385 82.2531 226.617 82.29 226.819Z" fill="#EFDBD3"/>
<path d="M92.227 224.212C92.1554 224.634 92.7817 224.58 93.5212 224.72C94.2607 224.861 94.9077 224.632 94.984 224.212C95.0603 223.793 94.7991 223.452 94.0596 223.312C93.3201 223.171 92.2987 223.79 92.227 224.212Z" fill="#EFDBD3"/>
<path d="M67.6893 220.246C67.6893 222.959 64.4724 226.59 60.7564 225.885C57.2114 225.211 53.6594 223.677 53.6594 220.951C53.6594 218.226 57.6505 214.257 61.2602 214.257C64.8699 214.257 67.6893 217.523 67.6893 220.246Z" fill="#68321F"/>
<path d="M61.26 215.137C61.26 215.137 57.1327 219.012 57.7936 220.951C58.4545 222.89 62.2422 216.193 61.26 215.137Z" fill="#F4F4F4"/>
<path d="M63.2776 219.175C63.2776 219.175 59.409 215.697 57.4747 216.255C55.5404 216.812 62.2238 220.012 63.2776 219.175Z" fill="#F4F4F4"/>
<path opacity="0.15" d="M41.9451 216.655C41.9451 216.655 54.5583 212.197 57.6411 211.721C60.724 211.245 72.3666 212.067 74.049 211.475C75.7314 210.883 83.9746 211.669 90.4568 212.708C92.8903 213.098 104.554 213.5 104.554 216.309C104.554 219.119 103.089 228.877 72.3966 226.454C41.7047 224.032 43.3501 224.054 41.9451 216.655Z" fill="#47201A"/>
<path d="M49.1228 225.539C48.7877 225.539 45.2311 223.048 44.8267 222.333C44.4223 221.618 43.7475 215.87 44.0849 215.51C44.4223 215.15 48.7808 219.084 48.7808 219.084C48.7808 219.084 49.4602 225.539 49.1228 225.539Z" fill="#E2E2E2"/>
<path d="M56.7421 222.014C56.7421 222.014 49.4602 225.532 49.1159 225.532C48.7715 225.532 48.7808 219.084 48.7808 219.084C48.7808 219.084 56.5248 215.108 56.8692 215.473C57.2135 215.838 56.8692 221.795 56.8692 221.795C56.8674 221.84 56.8547 221.884 56.8325 221.922C56.8102 221.961 56.7791 221.993 56.7421 222.014Z" fill="#E8EAE9"/>
<path d="M56.8692 215.488L52.2219 212.57C52.1466 212.524 52.0614 212.5 51.9746 212.5C51.8878 212.5 51.8026 212.524 51.7273 212.57C51.7273 212.57 44.085 215.147 44.085 215.505C44.085 215.863 48.7808 219.084 48.7808 219.084L56.8692 215.488Z" fill="#EFEFEF"/>
<path d="M46.3591 215.527C46.3591 215.527 51.2491 213.271 51.8107 213.271C51.8107 213.271 46.4562 215.814 46.3591 215.527Z" fill="#D8D8D8"/>
<path d="M47.2832 216.516C47.2832 216.516 51.9675 214.503 52.5037 214.503C52.5037 214.503 47.3756 216.77 47.2832 216.516Z" fill="#D8D8D8"/>
<path d="M49.1321 217.254C49.1321 217.254 54.0221 214.997 54.5836 214.997C54.5836 214.997 49.2291 217.54 49.1321 217.254Z" fill="#D8D8D8"/>
<path d="M106.812 216.724C106.812 224.353 103.114 240.157 73.8803 240.157C49.3702 240.157 43.0543 230.325 41.4667 222.397C41.3997 222.064 41.3419 221.733 41.2911 221.41C41.8342 221.41 42.3148 221.41 42.6777 221.41C43.1537 221.41 44.0296 221.072 44.1752 220.917C44.3208 220.762 43.7361 220.833 43.6899 220.581C43.5997 220.515 43.5119 220.446 43.4264 220.377L43.2762 220.256L43.2115 220.202L43.1075 220.113C43.059 220.073 43.0127 220.031 42.9665 219.989L42.8302 219.866L42.7008 219.743C42.6153 219.661 42.5298 219.578 42.4512 219.496C42.3726 219.415 42.3102 219.343 42.2432 219.267C41.9952 218.989 41.7716 218.688 41.5753 218.366L41.5176 218.268C41.4316 218.12 41.3544 217.967 41.2865 217.809C41.2518 217.73 41.2194 217.651 41.1894 217.562C41.1732 217.518 41.157 217.473 41.1432 217.429C41.1293 217.385 41.1131 217.338 41.0993 217.293C41.0413 217.096 40.9988 216.894 40.9722 216.689C40.9722 216.652 40.9722 216.618 40.9722 216.581C40.9722 216.544 40.9722 216.509 40.9722 216.475C40.9732 216.468 40.9732 216.461 40.9722 216.455C40.9907 216.437 41.0346 216.455 41.0808 216.475C41.127 216.494 41.194 216.519 41.1963 216.475C41.268 217.708 41.952 218.887 43.156 219.982C43.3201 220.133 43.4957 220.283 43.6829 220.431C46.6872 222.819 52.1688 224.77 59.1132 225.927C59.4876 225.988 59.8712 226.048 60.2687 226.107L61.103 226.23L61.3826 226.267L61.9696 226.346H61.9973L62.3255 226.388H62.3786L62.7299 226.43L63.2822 226.494L63.652 226.533C64.0079 226.573 64.3661 226.61 64.7289 226.644L65.7873 226.738L66.1085 226.765C66.4351 226.792 66.7633 226.816 67.093 226.839L67.3472 226.857L68.3132 226.916C69.0319 226.955 69.7599 226.99 70.4947 227.014H70.6473C71.1626 227.029 71.6826 227.044 72.2048 227.051C72.7687 227.061 73.3364 227.066 73.908 227.066C74.4796 227.066 75.0473 227.061 75.6112 227.051C76.1335 227.051 76.6535 227.029 77.1688 227.014H77.3213C78.0562 226.99 78.7842 226.955 79.5029 226.916C80.7208 226.847 81.9178 226.755 83.0872 226.644C83.45 226.61 83.8082 226.573 84.1641 226.533C85.0315 226.441 85.8788 226.337 86.7062 226.22C87.1499 226.159 87.5889 226.094 88.0234 226.025C88.2545 225.988 88.4856 225.954 88.7167 225.914L89.2297 225.828C89.5325 225.776 89.8306 225.722 90.1287 225.665C90.7234 225.555 91.3042 225.438 91.8712 225.315L92.1346 225.261C92.7755 225.118 93.401 224.97 94.0111 224.817C94.2884 224.745 94.5634 224.674 94.8338 224.6L95.2544 224.484L95.4716 224.422C95.7813 224.333 96.084 224.244 96.3822 224.153C98.488 223.536 100.529 222.689 102.472 221.625L102.626 221.521C102.957 221.329 103.269 221.129 103.551 220.927L103.83 220.732C103.994 220.614 104.154 220.485 104.304 220.372C104.355 220.332 104.406 220.293 104.454 220.251L104.623 220.108C104.672 220.068 104.718 220.026 104.764 219.985L104.9 219.861L105.03 219.738C105.115 219.656 105.201 219.573 105.279 219.491C105.358 219.41 105.42 219.338 105.487 219.262C105.735 218.984 105.959 218.683 106.155 218.361L106.213 218.263C106.299 218.115 106.376 217.962 106.444 217.804C106.479 217.725 106.511 217.646 106.541 217.557C106.557 217.513 106.574 217.469 106.587 217.424C106.601 217.38 106.617 217.333 106.631 217.288C106.689 217.091 106.732 216.889 106.758 216.684C106.758 216.647 106.758 216.613 106.758 216.576C106.758 216.539 106.758 216.504 106.758 216.47C106.758 216.435 106.758 216.447 106.758 216.438C106.809 216.536 106.812 216.63 106.812 216.724Z" fill="#353535"/>
<path d="M105.168 216.477C104.6 221.83 90.8056 226.114 73.8732 226.114C57.6549 226.114 44.316 222.182 42.7214 217.148C42.7074 217.11 42.6959 217.072 42.6867 217.032C42.6347 216.851 42.5983 216.665 42.5781 216.477H40.9604C40.9604 216.512 40.9604 216.549 40.9604 216.583C40.9604 216.618 40.9604 216.655 40.9604 216.692C40.9871 216.897 41.0296 217.099 41.0876 217.296C41.1014 217.34 41.1153 217.385 41.1315 217.432C41.1476 217.479 41.1615 217.521 41.1777 217.565C41.2077 217.646 41.2401 217.725 41.2747 217.812C41.3427 217.97 41.4199 218.123 41.5058 218.27L41.5636 218.369C41.7599 218.69 41.9835 218.992 42.2315 219.269C42.2993 219.347 42.3686 219.423 42.4395 219.499C42.518 219.583 42.6035 219.666 42.6891 219.745L42.8185 219.869L42.9548 219.992C43.001 220.034 43.0473 220.076 43.0958 220.115L43.1998 220.204L43.2645 220.258L43.4147 220.379C43.5002 220.448 43.588 220.517 43.6781 220.584L43.8884 220.737C43.9786 220.804 44.0733 220.868 44.1681 220.932C44.4616 221.134 44.7735 221.334 45.0925 221.526L45.2866 221.64C47.2295 222.704 49.2701 223.551 51.376 224.168C51.6741 224.259 51.9768 224.348 52.2865 224.437L52.5037 224.499L52.9243 224.615C53.1947 224.689 53.4697 224.76 53.747 224.832C54.3571 224.985 54.9811 225.133 55.6235 225.276L55.887 225.33C56.4555 225.453 57.0363 225.57 57.6294 225.68C57.9275 225.737 58.2257 225.791 58.5284 225.843L59.0414 225.929H59.0645L59.3973 225.986L59.7255 226.038L60.4442 226.146L61.0427 226.233L61.3224 226.27L61.9093 226.349H61.9532L62.293 226.391H62.3461L62.6974 226.432L63.2497 226.497L63.6195 226.536C63.9753 226.576 64.3358 226.613 64.6964 226.647L65.7548 226.741L66.5243 226.802L67.3031 226.859L68.2691 226.918C68.9878 226.958 69.7158 226.992 70.4507 227.017H70.6032C71.1185 227.032 71.6385 227.047 72.1608 227.054C72.7246 227.064 73.2924 227.069 73.864 227.069C74.4355 227.069 75.0033 227.064 75.5671 227.054C76.0894 227.054 76.6094 227.032 77.1247 227.017H77.2772C78.0121 226.992 78.7401 226.958 79.4588 226.918C80.6767 226.849 81.8738 226.758 83.0431 226.647C83.4036 226.613 83.7641 226.576 84.12 226.536C84.9874 226.444 85.8347 226.34 86.6621 226.223C87.1058 226.162 87.5449 226.097 87.9793 226.028C88.2104 225.991 88.4415 225.956 88.6726 225.917L89.1856 225.831C89.4884 225.779 89.7865 225.725 90.0846 225.668C90.6793 225.558 91.2601 225.441 91.8271 225.318L92.0905 225.263C92.733 225.12 93.3569 224.972 93.967 224.819C94.2443 224.748 94.5193 224.676 94.7897 224.602L95.2103 224.486L95.4276 224.425C95.7372 224.336 96.04 224.247 96.3381 224.156C98.444 223.539 100.485 222.692 102.427 221.627L102.626 221.521C102.957 221.329 103.269 221.129 103.551 220.927L103.83 220.732C103.994 220.614 104.154 220.485 104.304 220.372L104.454 220.251L104.623 220.108C104.671 220.069 104.718 220.027 104.764 219.985L104.9 219.861L105.03 219.738C105.115 219.657 105.201 219.573 105.279 219.491C105.358 219.41 105.42 219.338 105.487 219.262C105.735 218.984 105.959 218.683 106.155 218.362L106.213 218.263C106.299 218.115 106.376 217.962 106.444 217.804C106.479 217.725 106.511 217.646 106.541 217.558C106.557 217.513 106.573 217.469 106.587 217.424C106.601 217.38 106.617 217.333 106.631 217.289C106.689 217.091 106.732 216.889 106.758 216.684C106.758 216.647 106.758 216.613 106.758 216.576C106.758 216.539 106.758 216.504 106.758 216.47L105.168 216.477Z" fill="#444444"/>
<path d="M44.1843 220.917C44.0388 221.072 43.1629 221.41 42.6868 221.41C42.3148 221.41 41.8341 221.41 41.3003 221.41C38.6889 221.356 34.6285 220.917 34.2588 217.762C34.224 217.443 34.224 217.12 34.2588 216.8C34.5083 214.144 40.3551 211.79 42.6868 211.79C42.984 211.758 43.2825 211.836 43.5327 212.01C43.2256 212.247 42.9316 212.503 42.6522 212.777C41.5475 213.862 40.949 215.024 40.949 216.23C40.949 216.303 40.949 216.374 40.949 216.445C40.95 216.451 40.95 216.458 40.949 216.465C40.949 216.499 40.949 216.536 40.949 216.571C40.949 216.605 40.949 216.642 40.949 216.679C40.9756 216.884 41.0182 217.086 41.0761 217.284C41.09 217.328 41.1038 217.375 41.12 217.419C41.1362 217.464 41.15 217.508 41.1662 217.552C41.1963 217.634 41.2286 217.713 41.2633 217.799C41.3313 217.957 41.4084 218.11 41.4944 218.258L41.5522 218.357C41.7484 218.678 41.972 218.979 42.22 219.257C42.2878 219.334 42.3571 219.411 42.428 219.486C42.5066 219.57 42.5921 219.654 42.6776 219.733L42.807 219.856L42.9434 219.98C42.9896 220.022 43.0358 220.063 43.0843 220.103L43.1883 220.192L43.253 220.246C43.3016 220.288 43.3524 220.327 43.4032 220.367C43.4887 220.436 44.0619 220.596 44.152 220.663C44.1736 220.674 44.1922 220.69 44.2063 220.711C44.2204 220.731 44.2295 220.755 44.2327 220.781C44.2359 220.806 44.2332 220.831 44.2248 220.855C44.2163 220.879 44.2024 220.9 44.1843 220.917Z" fill="#444444"/>
<path d="M103.974 221.173C103.715 221.943 103.292 223.886 104.415 223.886C104.745 223.886 105.164 223.886 105.635 223.886C108.475 223.845 113.724 221.605 113.317 217.473V217.227C112.947 220.391 108.884 221.358 106.273 221.42C105.73 221.42 105.249 221.42 104.886 221.42C104.401 221.41 104.119 221.329 103.974 221.173Z" fill="#353535"/>
<path d="M103.38 220.917C103.525 221.072 104.401 221.41 104.877 221.41C105.249 221.41 105.73 221.41 106.264 221.41C108.875 221.356 112.936 220.917 113.305 217.762C113.34 217.442 113.34 217.12 113.305 216.8C113.044 214.151 107.198 211.798 104.866 211.798C104.569 211.765 104.27 211.843 104.02 212.017C104.327 212.255 104.621 212.511 104.9 212.784C106.005 213.87 106.604 215.031 106.604 216.238C106.604 216.31 106.604 216.382 106.604 216.452C106.603 216.459 106.603 216.465 106.604 216.472C106.604 216.506 106.604 216.543 106.604 216.578C106.604 216.613 106.604 216.65 106.592 216.687C106.565 216.891 106.523 217.094 106.465 217.291C106.451 217.335 106.437 217.382 106.421 217.427C106.405 217.471 106.391 217.515 106.375 217.56C106.345 217.641 106.312 217.72 106.278 217.806C106.21 217.964 106.133 218.118 106.047 218.265L105.989 218.364C105.793 218.685 105.569 218.987 105.321 219.264C105.253 219.341 105.184 219.418 105.113 219.494C105.034 219.577 104.949 219.661 104.863 219.74L104.734 219.864L104.598 219.987C104.551 220.029 104.505 220.071 104.457 220.11L104.353 220.199L104.288 220.253C104.239 220.295 104.189 220.335 104.138 220.374C104.087 220.414 103.479 220.604 103.389 220.67C103.37 220.684 103.355 220.702 103.344 220.723C103.333 220.744 103.327 220.767 103.326 220.791C103.325 220.815 103.329 220.839 103.339 220.861C103.348 220.883 103.362 220.902 103.38 220.917Z" fill="#444444"/>
<path d="M43.6665 220.433C43.6781 220.483 43.6897 220.532 43.6989 220.579C43.6088 220.512 43.521 220.443 43.4354 220.374L43.2852 220.253L43.2205 220.199L43.1165 220.11C43.068 220.071 43.0218 220.029 42.9756 219.987L42.8392 219.863L42.7098 219.74C42.6243 219.659 42.5388 219.575 42.4602 219.493C42.3816 219.412 42.3192 219.341 42.2522 219.264C42.0042 218.986 41.7807 218.685 41.5844 218.364L41.5266 218.265C41.4407 218.117 41.3635 217.964 41.2955 217.806C41.2608 217.727 41.2285 217.648 41.1984 217.56C41.1823 217.515 41.1661 217.471 41.1522 217.426C41.1383 217.382 41.1222 217.335 41.1083 217.291C41.0504 217.093 41.0078 216.891 40.9812 216.686C40.9812 216.649 40.9812 216.615 40.9812 216.578C40.9812 216.541 40.9812 216.506 40.9812 216.472C40.9822 216.465 40.9822 216.459 40.9812 216.452C40.9812 216.38 40.9812 216.308 40.9812 216.238C40.9812 215.031 41.5797 213.87 42.6844 212.784C42.9638 212.511 43.2578 212.255 43.5649 212.017C43.7567 212.185 43.796 212.449 43.7266 212.789C43.7081 212.885 43.6827 212.991 43.6527 213.102C43.5833 213.349 43.484 213.625 43.3777 213.924C43.0819 214.75 42.719 215.752 42.719 216.8C42.719 216.881 42.719 216.96 42.719 217.047C42.719 217.133 42.719 217.214 42.7375 217.293C42.8485 218.591 43.4655 219.696 43.6665 220.433Z" fill="#444444"/>
</g>
<path d="M175.022 201.593L161.134 216.07C158.943 218.741 155.581 218.741 153.41 216.07L139.517 201.593H157.287C151.643 201.593 146.746 201.995 144.282 202.599C144.018 202.655 143.759 202.729 143.505 202.82C142.909 203.022 142.586 203.243 142.586 203.464C142.588 203.528 142.609 203.589 142.647 203.64C143.328 204.586 149.624 205.336 157.287 205.336C164.951 205.336 171.241 204.586 171.927 203.64C171.965 203.589 171.986 203.528 171.988 203.464C171.988 203.238 171.66 203.022 171.064 202.82C170.819 202.728 170.567 202.651 170.312 202.589C167.848 201.995 162.946 201.583 157.312 201.583L175.022 201.593Z" fill="#F0F3F3"/>
<path d="M155.46 203.63H157.277H159.089H155.46ZM157.277 199.133C147.478 199.133 139.517 200.139 139.517 201.387C139.518 201.462 139.545 201.535 139.592 201.593C139.931 202.051 141.339 202.473 143.505 202.81C143.759 202.719 144.018 202.645 144.282 202.589C146.746 201.996 151.643 201.583 157.287 201.583C162.931 201.583 167.823 201.985 170.287 202.589C170.549 202.646 170.807 202.72 171.059 202.81C173.22 202.473 174.623 202.051 174.951 201.593C174.998 201.534 175.023 201.462 175.022 201.387C175.022 200.139 167.076 199.133 157.277 199.133Z" fill="#E2E2E2"/>
<path d="M171.983 203.63L161.139 214.375C158.953 217.046 155.586 217.046 153.42 214.375L142.576 203.63H142.647C143.328 204.576 149.624 205.326 157.287 205.326C164.951 205.326 171.241 204.576 171.927 203.63H171.983Z" fill="#F8F8F8"/>
<path d="M171.059 202.811C167.091 203.343 163.093 203.617 159.089 203.631H155.46C151.461 203.617 147.468 203.343 143.505 202.811C143.759 202.719 144.018 202.645 144.282 202.589C148.598 203.054 152.937 203.269 157.277 203.233C161.631 203.27 165.983 203.055 170.312 202.589C170.565 202.648 170.815 202.722 171.059 202.811Z" fill="#E2E2E2"/>
<path d="M171.983 203.454C171.981 203.518 171.96 203.579 171.922 203.63H159.089C163.093 203.617 167.091 203.343 171.059 202.811C171.655 203.012 171.983 203.228 171.983 203.454Z" fill="#E9E9E9"/>
<path d="M171.923 203.63C171.241 204.576 164.946 205.326 157.282 205.326C149.619 205.326 143.328 204.576 142.647 203.63H155.46H157.277H159.089H171.923Z" fill="#E9E9E9"/>
<path d="M155.459 203.63H142.647C142.609 203.579 142.588 203.518 142.586 203.454C142.586 203.233 142.909 203.012 143.505 202.811C147.467 203.343 151.461 203.617 155.459 203.63Z" fill="#E9E9E9"/>
<path d="M159.089 203.63L157.277 203.661H155.459L159.089 203.63Z" fill="#F9EFC5"/>
<path d="M170.312 202.589C165.983 203.054 161.631 203.269 157.277 203.233C152.936 203.268 148.598 203.053 144.282 202.589C146.746 201.995 151.643 201.583 157.287 201.583C162.931 201.583 167.823 201.995 170.312 202.589Z" fill="#E9E9E9"/>
<path d="M174.411 201.387C174.409 201.427 174.398 201.466 174.38 201.501C174.362 201.537 174.336 201.568 174.305 201.593C173.917 201.971 172.468 202.313 170.267 202.599C167.803 202.006 162.901 201.593 157.267 201.593C151.633 201.593 146.726 201.996 144.262 202.599C142.071 202.328 140.617 201.981 140.223 201.593C140.192 201.568 140.167 201.537 140.149 201.501C140.13 201.466 140.12 201.427 140.117 201.387C140.117 200.381 147.786 199.541 157.252 199.541C166.718 199.541 174.411 200.366 174.411 201.387Z" fill="#D2D7D8"/>
<path d="M161.083 212.715C161.947 211.659 162.532 210.633 162.648 210.799C162.765 210.965 162.144 211.961 161.29 213.017C160.437 214.073 159.635 214.803 159.524 214.637C159.412 214.471 160.215 213.797 161.083 212.715Z" fill="#EAEAEA"/>
<path d="M157.709 213.689C158.154 212.79 157.544 211.584 156.346 210.995C155.148 210.407 153.816 210.659 153.371 211.559C152.926 212.458 153.537 213.664 154.734 214.253C155.932 214.841 157.264 214.589 157.709 213.689Z" fill="#DDC643"/>
<path d="M156.969 213.822C156.939 214.018 156.56 214.164 156.121 214.138C155.682 214.113 155.349 213.942 155.379 213.746C155.409 213.55 155.884 213.771 156.333 213.791C156.782 213.811 156.999 213.625 156.969 213.822Z" fill="#FFEEA6"/>
<path d="M165.637 236.453H149.917V236.735H165.637V236.453Z" fill="#DDE7EA"/>
<path d="M157.777 237.867C162.118 237.867 165.637 237.36 165.637 236.735C165.637 236.11 162.118 235.603 157.777 235.603C153.436 235.603 149.917 236.11 149.917 236.735C149.917 237.36 153.436 237.867 157.777 237.867Z" fill="#C7CBCB"/>
<path d="M157.777 237.585C162.118 237.585 165.637 237.078 165.637 236.453C165.637 235.828 162.118 235.321 157.777 235.321C153.436 235.321 149.917 235.828 149.917 236.453C149.917 237.078 153.436 237.585 157.777 237.585Z" fill="#F0F3F3"/>
<path d="M158.948 235.774H155.919C155.919 235.774 156.424 238.838 156.424 226.297C156.424 218.399 155.919 216.865 155.919 216.865H158.948C158.948 216.865 158.443 218.42 158.443 226.322C158.448 238.873 158.948 235.774 158.948 235.774Z" fill="#F0F3F3"/>
<defs>
<clipPath id="clip0_1566_2521">
<rect width="100.997" height="100.997" fill="white" transform="translate(23.0029 166)"/>
</clipPath>
</defs>
</svg>
