<svg width="54" height="28" viewBox="0 0 54 28" fill="none" xmlns="http://www.w3.org/2000/svg">
<path d="M53.1619 9.12304C53.1619 13.6939 53.1619 27.1554 26.9253 27.1554C0.860438 27.1554 0.688843 13.6939 0.688843 9.12304C0.688843 4.55217 12.4343 0.844238 26.9253 0.844238C41.4164 0.844238 53.1619 4.54968 53.1619 9.12304Z" fill="#F9F9F9"/>
<path d="M50.5035 8.09865C50.4927 8.535 50.3563 8.95897 50.1105 9.3197C48.0912 12.5004 38.5143 15.5021 27.0125 15.5021C15.5107 15.5021 5.93374 12.5004 3.92186 9.3197C3.67611 8.95897 3.53968 8.535 3.52893 8.09865C3.52893 4.51506 14.0459 1.60791 27.0224 1.60791C39.9989 1.60791 50.5035 4.51506 50.5035 8.09865Z" fill="#262626"/>
<path d="M50.5035 8.09865C50.4927 8.535 50.3563 8.95897 50.1105 9.3197C48.0912 12.5004 38.5143 15.5021 27.0125 15.5021C15.5107 15.5021 5.93374 12.5004 3.92186 9.3197C3.67611 8.95897 3.53968 8.535 3.52893 8.09865C3.52893 4.51506 14.0459 1.60791 27.0224 1.60791C39.9989 1.60791 50.5035 4.51506 50.5035 8.09865Z" fill="#848484"/>
<path d="M50.4263 9.75734C50.4157 10.1941 50.2783 10.6183 50.0309 10.9784C48.0116 14.1591 38.4371 17.1608 26.9328 17.1608C15.4286 17.1608 5.84665 14.1591 3.82731 10.9784C3.5783 10.6186 3.43841 10.1946 3.42444 9.75734C3.42444 6.17376 13.9414 3.2666 26.9179 3.2666C39.8944 3.2666 50.4263 6.17376 50.4263 9.75734Z" fill="#FCF9EB"/>
<path d="M44.719 10.1901C43.4333 10.3319 43.5626 9.09095 42.4808 9.37196C41.399 9.65298 42.1003 8.0191 41.0111 8.47918C39.9218 8.93925 40.1332 8.19319 39.4966 8.46674C38.8599 8.7403 38.1089 9.17799 38.1089 9.17799C38.1089 9.17799 36.3159 8.95914 35.7862 9.24016C35.2266 9.48657 34.6242 9.62091 34.013 9.63557C33.8438 9.65903 33.6819 9.71984 33.5391 9.81361C33.3963 9.90738 33.2762 10.0318 33.1874 10.1777L35.6146 10.409C36.7486 10.5159 38.3899 9.54356 39.223 10.5383C40.0561 11.5331 40.4665 13.065 41.8914 12.396C43.3164 11.727 44.7687 12.3537 45.2587 12.4681C45.7486 12.5825 46.1365 11.5554 46.1365 11.5554C46.1365 11.5554 45.4676 10.1081 44.719 10.1901Z" fill="#0E5110"/>
<path d="M43.6819 11.0058C43.6819 11.0058 40.0038 9.29981 38.5415 9.70269C37.0792 10.1056 36.1566 10.2697 36.1566 10.2697C36.1566 10.2697 39.6382 10.108 40.5683 10.3368C41.4984 10.5656 43.6819 11.0058 43.6819 11.0058Z" fill="#377C37"/>
<path d="M53.1619 8.75001C53.1606 8.95545 53.1347 9.16 53.0848 9.35929H50.1005C50.3479 8.99921 50.4853 8.57498 50.4959 8.13824C50.4959 4.55465 39.9765 1.6475 27.0024 1.6475C14.0284 1.6475 3.5189 4.55465 3.5189 8.13824C3.53287 8.57555 3.67276 8.99953 3.92177 9.35929H0.937522C0.888391 9.15991 0.863343 8.95535 0.862915 8.75001C0.860429 4.39052 12.5686 0.844238 27.0124 0.844238C41.4561 0.844238 53.1619 4.39052 53.1619 8.75001Z" fill="#262626"/>
<path d="M43.5601 12.284C42.2719 12.1969 42.5654 10.9908 41.4712 11.0778C40.3769 11.1649 41.2772 9.67523 40.1382 9.93635C38.9992 10.1975 39.3126 9.49866 38.6461 9.65533C38.1488 9.78298 37.6582 9.9357 37.1763 10.1129C37.1763 10.1129 35.4355 9.57575 34.8735 9.75978C34.2778 9.90656 33.6588 9.93193 33.0531 9.83439C32.5309 9.76973 32.1653 9.20521 32.1653 10.2223C32.1653 11.2395 33.6425 10.0756 34.5328 10.8814C35.5474 11.8015 37.1166 11.426 37.803 12.5575C38.4894 13.689 38.9694 14.368 40.459 13.9601C41.9486 13.5523 43.309 14.4276 43.7765 14.6266C44.244 14.8255 44.7712 13.8805 44.7712 13.8805C44.7712 13.8805 44.3112 12.3362 43.5601 12.284Z" fill="#0E5110"/>
<path d="M42.4236 12.9083C42.4236 12.9083 39.0265 10.5607 37.5269 10.7099C36.0274 10.8592 35.0923 10.8467 35.0923 10.8467C35.0923 10.8467 38.5515 11.3018 39.4418 11.6923C40.3321 12.0827 42.4236 12.9083 42.4236 12.9083Z" fill="#377C37"/>
<path d="M41.2249 13.0301C39.9367 12.9405 40.2301 11.7369 39.1334 11.8239C38.0367 11.911 38.9419 10.4188 37.8029 10.6824C36.664 10.9461 36.9748 10.2423 36.3108 10.4014C35.6468 10.5606 34.8436 10.8565 34.8436 10.8565C34.8436 10.8565 33.1028 10.3218 32.5407 10.5059C31.9441 10.6514 31.3244 10.6767 30.7178 10.5805C30.1981 10.5158 29.8325 9.9513 29.8325 10.9684C29.8325 11.9856 31.3072 10.8217 32.1975 11.6275C33.2147 12.5476 34.7814 12.1696 35.4703 13.3036C36.1591 14.4376 36.6341 15.1141 38.1262 14.7062C39.6184 14.2984 40.9737 15.1737 41.4412 15.3727C41.9088 15.5716 42.436 14.6266 42.436 14.6266C42.436 14.6266 41.9709 13.0748 41.2249 13.0301Z" fill="#0E5110"/>
<path d="M40.0761 13.6767C40.0761 13.6767 36.679 11.3291 35.1769 11.4758C33.6748 11.6226 32.7448 11.6126 32.7448 11.6126C32.7448 11.6126 36.2015 12.0702 37.0918 12.4606C37.9821 12.8511 40.0761 13.6767 40.0761 13.6767Z" fill="#377C37"/>
<path d="M20.9593 15.7035C20.9593 17.31 15.6722 15.5021 12.9217 15.5021C10.1713 15.5021 11.2779 12.7516 12.4517 11.6997C17.2066 7.44463 21.959 9.73752 24.7095 9.73752C27.46 9.73752 20.9593 14.097 20.9593 15.7035Z" fill="#E55110"/>
<path d="M22.3246 10.9709C21.6457 10.8366 17.9055 15.2682 17.4927 15.7407C17.1544 16.1311 17.1495 15.5964 17.1594 15.3801C17.1594 15.6114 17.229 15.8775 17.4927 15.5641C17.9055 15.0817 21.6457 10.6575 22.3246 10.7918C22.5211 10.8291 22.7101 10.6202 22.7499 10.4014C22.822 10.665 22.5733 11.0181 22.3246 10.9709Z" fill="#E04E0E"/>
<path d="M22.7549 10.4016C22.7151 10.6204 22.5261 10.8293 22.3296 10.792C21.6457 10.6577 17.9055 15.0819 17.4927 15.5643C17.2291 15.8677 17.1669 15.6116 17.1594 15.3803C17.1594 15.3356 17.1594 15.3057 17.1594 15.3057C17.2788 14.5994 20.84 10.4439 22.0014 10.1778C22.5037 10.0584 22.7151 10.2051 22.7549 10.4016Z" fill="#F95A0B"/>
<path d="M21.3498 10.5929C20.6684 10.4611 16.9281 14.8803 16.5128 15.3652C16.1771 15.7531 16.1721 15.2185 16.1796 15.0046C16.1796 15.2359 16.2492 15.502 16.5128 15.1861C16.9281 14.7062 20.6684 10.2945 21.3498 10.4138C21.5462 10.4536 21.7353 10.2422 21.7775 10.0259C21.8397 10.2945 21.601 10.6426 21.3498 10.5929Z" fill="#E04E0E"/>
<path d="M21.7776 10.026C21.7354 10.2423 21.5464 10.4537 21.3499 10.4139C20.6685 10.2946 16.9282 14.7063 16.5129 15.1862C16.2493 15.4921 16.1896 15.236 16.1797 15.0047C16.1797 14.9599 16.1797 14.9301 16.1797 14.9301C16.2966 14.2238 19.8603 10.0683 21.0216 9.80216C21.524 9.68279 21.7354 9.82702 21.7776 10.026Z" fill="#F95A0B"/>
<path d="M23.1305 9.91626C23.3568 10.6623 20.1462 15.5938 19.7881 16.1334C19.5071 16.5761 19.9697 16.494 20.1537 16.4493C19.9547 16.4766 19.721 16.4493 19.9423 16.1036C20.2905 15.559 23.511 10.6325 23.2847 9.88642C23.263 9.77873 23.2776 9.66689 23.3262 9.56836C23.3748 9.46984 23.4546 9.39017 23.5532 9.3418C23.4855 9.34646 23.4196 9.36581 23.3602 9.3985C23.3007 9.43119 23.249 9.47644 23.2088 9.53111C23.1686 9.58577 23.1407 9.64854 23.1272 9.71506C23.1137 9.78157 23.1148 9.85023 23.1305 9.91626V9.91626Z" fill="#E04E0E"/>
<path d="M23.5532 9.34473C23.4546 9.3931 23.3747 9.47277 23.3262 9.57129C23.2776 9.66982 23.263 9.78165 23.2846 9.88935C23.5109 10.6354 20.3004 15.5644 19.9423 16.1065C19.7209 16.4522 19.9423 16.4796 20.1537 16.4522L20.2183 16.4323C20.8102 16.1836 23.8268 11.5008 23.869 10.148C23.8914 9.57352 23.7298 9.35965 23.5532 9.34473Z" fill="#F95A0B"/>
<path d="M23.2946 11.4809C22.6107 11.3466 18.8704 15.7658 18.4576 16.2631C18.1194 16.6536 18.1144 16.1189 18.1244 15.905C18.1244 16.1338 18.194 16.4024 18.4576 16.0866C18.8704 15.6066 22.6107 11.18 23.2946 11.3143C23.4886 11.3541 23.6801 11.1427 23.7198 10.9238C23.782 11.175 23.5433 11.5381 23.2946 11.4809Z" fill="#E04E0E"/>
<path d="M23.7199 10.9113C23.6801 11.1301 23.4886 11.3415 23.2946 11.3017C22.6107 11.1674 18.8705 15.5941 18.4576 16.074C18.194 16.3774 18.1319 16.1213 18.1244 15.8925C18.1244 15.8477 18.1244 15.8179 18.1244 15.8179C18.2438 15.1116 21.805 10.9561 22.9663 10.69C23.4687 10.5681 23.6801 10.7148 23.7199 10.9113Z" fill="#F95A0B"/>
<path d="M20.2531 10.5758C19.5717 10.444 15.8314 14.8632 15.4161 15.3481C15.0804 15.7361 15.0754 15.2014 15.0829 14.9875C15.0829 15.2188 15.1525 15.4849 15.4161 15.169C15.8314 14.6891 19.5717 10.2649 20.2531 10.3967C20.4496 10.4365 20.6386 10.2251 20.6808 10.0088C20.743 10.2699 20.5043 10.6255 20.2531 10.5758Z" fill="#E04E0E"/>
<path d="M20.6808 10.0087C20.6386 10.225 20.4496 10.4364 20.2531 10.3966C19.5717 10.2648 15.8314 14.689 15.4161 15.1689C15.1525 15.4748 15.0928 15.2187 15.0829 14.9874C15.0829 14.9426 15.0829 14.9128 15.0829 14.9128C15.2072 14.199 18.7709 10.046 19.9323 9.77738C20.4272 9.66547 20.6386 9.80971 20.6808 10.0087Z" fill="#F95A0B"/>
<path d="M10.0669 7.88976C10.3607 7.50541 10.7132 7.16971 11.1114 6.89501C11.512 6.60887 11.9474 6.37489 12.407 6.19869C12.8805 6.00853 13.3896 5.92367 13.8992 5.95C14.1895 5.96384 14.4681 6.06916 14.695 6.25091C14.7892 6.34129 14.8726 6.44227 14.9437 6.55182C15.0136 6.62737 15.0901 6.69645 15.1724 6.75823C15.5256 7.02682 15.9508 7.25561 16.3512 7.54906C16.5644 7.69193 16.7576 7.86254 16.9257 8.05638C17.1135 8.27218 17.2122 8.55136 17.2017 8.83726C17.1666 9.10204 17.0522 9.35 16.8735 9.54851C16.7126 9.73561 16.5297 9.90261 16.3288 10.0459C15.9391 10.328 15.5226 10.5712 15.0854 10.772C15.4772 10.5034 15.8502 10.2084 16.202 9.88921C16.3705 9.73399 16.5223 9.56145 16.6546 9.37442C16.7739 9.21213 16.843 9.01849 16.8536 8.81736C16.8536 8.43687 16.4805 8.13099 16.1075 7.88479C15.7345 7.63859 15.2968 7.42472 14.884 7.12132C14.7739 7.04143 14.6723 6.95061 14.5806 6.85025C14.5215 6.76045 14.4531 6.6771 14.3766 6.60156C14.2263 6.49818 14.0513 6.43641 13.8693 6.42251C13.6527 6.4032 13.4345 6.4124 13.2202 6.44986C12.9965 6.48388 12.7754 6.53374 12.5587 6.59907C11.6567 6.87468 10.8124 7.31203 10.0669 7.88976V7.88976Z" fill="#E5E2DF"/>
<path d="M9.78585 7.2729C9.47748 7.42212 9.07212 7.95679 9.20392 8.30744C9.33573 8.65809 9.94998 8.69042 10.2608 8.53872C10.5717 8.38702 11.2034 8.07865 10.9273 7.46439C10.7159 6.99686 10.0917 7.1212 9.78585 7.2729Z" fill="#EFD460"/>
<path d="M15.1998 13.8803C15.4484 12.9204 19.8104 10.058 20.2904 9.73717C20.6783 9.47356 20.3625 9.2199 20.2332 9.13037C20.365 9.24974 20.4819 9.44869 20.1835 9.6551C19.706 9.97591 15.3316 12.8358 15.0928 13.7957C15.0257 14.0743 14.8118 14.2235 14.6626 14.1787C14.7894 14.3802 15.1127 14.2334 15.1998 13.8803Z" fill="#E04E0E"/>
<path d="M14.6626 14.1793C14.8118 14.2241 15.0257 14.0748 15.0928 13.7963C15.3415 12.8364 19.706 9.97648 20.1835 9.65568C20.4893 9.44927 20.365 9.25032 20.2332 9.13095L20.1859 9.10359C19.711 8.92951 15.5803 11.68 14.8814 13.0826C14.5756 13.6844 14.5631 14.0251 14.6626 14.1793Z" fill="#F95A0B"/>
<path d="M12.9094 13.7242C13.1581 12.7693 17.5524 9.99392 18.0348 9.67809C18.4278 9.4294 18.1119 9.16082 17.9826 9.07129C18.1144 9.19315 18.2313 9.39458 17.9304 9.59353C17.4504 9.90688 13.0512 12.6822 12.8025 13.6372C12.7328 13.9132 12.5165 14.06 12.3698 14.0102C12.4966 14.2166 12.8174 14.0749 12.9094 13.7242Z" fill="#E04E0E"/>
<path d="M12.3772 14.0099C12.5239 14.0596 12.7402 13.9129 12.8099 13.6368C13.0586 12.6819 17.4578 9.90652 17.9378 9.59317C18.2437 9.39422 18.1218 9.19278 17.99 9.07093L17.9303 9.05103C17.4578 8.867 13.3048 11.5379 12.591 12.9306C12.2876 13.5274 12.2727 13.8606 12.3772 14.0099Z" fill="#F95A0B"/>
<path d="M14.4488 13.8085C14.6975 12.8486 19.0594 9.9862 19.5394 9.66539C19.9299 9.4167 19.614 9.14812 19.4822 9.05859C19.614 9.17796 19.7309 9.3794 19.435 9.58332C18.955 9.90413 14.5806 12.7665 14.3419 13.7265C14.2747 14.0025 14.0608 14.1542 13.9116 14.1069C14.0385 14.3084 14.3667 14.1617 14.4488 13.8085Z" fill="#E04E0E"/>
<path d="M13.9116 14.1072C14.0608 14.1545 14.2747 14.0028 14.3418 13.7267C14.5905 12.7668 18.955 9.90439 19.435 9.58358C19.7384 9.37966 19.614 9.17822 19.4822 9.05885L19.435 9.03398C18.96 8.85741 14.8293 11.6104 14.1305 13.013C13.8246 13.6123 13.8146 13.9605 13.9116 14.1072Z" fill="#F95A0B"/>
<path d="M40.9314 4.05479C36.7883 1.64501 33.4708 6.29298 34.1249 6.75802C34.7789 7.22307 36.9599 8.86192 37.3329 8.80223C37.706 8.74255 43.0527 5.28828 40.9314 4.05479Z" fill="#D32E18"/>
<path d="M38.7232 3.05264C37.6314 2.36626 34.7143 6.86501 34.8561 7.03163C34.9978 7.19825 35.4604 7.8523 35.6444 7.70309C35.8284 7.55388 39.2802 3.40577 38.7232 3.05264Z" fill="#FF3608"/>
<path d="M40.2575 2.83389C39.1459 2.18233 35.4504 7.96431 35.5822 8.15828C35.714 8.35226 36.1467 9.04361 36.3655 8.8372C36.5844 8.63079 40.827 3.17708 40.2575 2.83389Z" fill="#FF3608"/>
<path d="M37.6065 2.24201C36.4402 1.78194 34.1249 7.0168 34.289 7.17099C34.4532 7.32518 34.9903 7.87229 35.1545 7.66836C35.3186 7.46444 38.2034 2.47577 37.6065 2.24201Z" fill="#E03114"/>
<path d="M41.3343 3.50031C40.071 2.67218 36.2512 8.04134 36.4153 8.2577C36.5794 8.47406 37.0843 9.25245 37.3155 9.06344C37.5468 8.87444 41.971 3.92308 41.3343 3.50031Z" fill="#E03114"/>
<path d="M42.6375 4.19939C41.5109 3.20713 37.3404 7.31046 37.4697 7.55915C37.5991 7.80784 38.0119 8.57628 38.2531 8.4594C38.4943 8.34252 43.2144 4.70671 42.6375 4.19939Z" fill="#FF3608"/>
<path d="M33.8762 1.68241C34.9704 2.37625 34.386 6.97696 34.1945 6.92722C34.003 6.87748 33.344 6.73573 33.3067 6.50197C33.2694 6.2682 33.3166 1.34171 33.8762 1.68241Z" fill="#E03114"/>
<path d="M35.7139 2.53797C34.5128 2.32161 33.2495 7.39981 33.4335 7.51172C33.6175 7.62363 34.2343 8.02153 34.3536 7.82009C34.473 7.61865 36.3282 2.64739 35.7139 2.53797Z" fill="#FF3608"/>
<path d="M16.2891 2.93855C24.8986 1.16044 25.7019 5.61443 24.7444 5.97254C23.787 6.33065 20.4968 7.56165 20.0194 7.46466C19.5419 7.36767 13.1407 3.58016 16.2891 2.93855Z" fill="#994F25"/>
<path d="M18.5944 2.01299C19.7384 1.65985 21.8646 5.53191 21.703 5.6488C21.5414 5.76568 20.9942 6.1785 20.8326 6.03675C20.6709 5.895 17.9901 2.19453 18.5944 2.01299Z" fill="#C1682D"/>
<path d="M17.5798 2.10286C18.771 1.98846 20.2631 6.23107 20.0866 6.31562C19.91 6.40017 19.3082 6.69362 19.1764 6.52203C19.0446 6.35044 16.968 2.16254 17.5798 2.10286Z" fill="#C1682D"/>
<path d="M14.864 3.18956C16.0279 2.83394 18.1542 6.70848 17.99 6.81293C17.8259 6.91738 17.2838 7.34512 17.1296 7.20088C16.9754 7.05665 14.2796 3.3711 14.864 3.18956Z" fill="#B25724"/>
<path d="M16.3289 2.40638C17.5226 2.34669 18.8605 6.65644 18.679 6.72856C18.4975 6.80068 17.8882 7.07175 17.7638 6.89269C17.6395 6.71364 15.7146 2.43622 16.3289 2.40638Z" fill="#C1682D"/>
<path d="M24.4883 1.67765C23.3195 2.0283 23.3195 5.8929 23.5209 5.89041C23.7223 5.88792 24.3838 5.89041 24.4485 5.71633C24.5132 5.54225 25.0851 1.49859 24.4883 1.67765Z" fill="#994F25"/>
<path d="M21.3995 1.7199C22.6082 1.77959 23.2199 6.16643 23.0259 6.21866C22.832 6.27088 22.173 6.47978 22.0785 6.29078C21.984 6.10177 20.7778 1.68757 21.3995 1.7199Z" fill="#C1682D"/>
<path d="M22.7922 1.4265C23.9859 1.50359 24.9459 5.94018 24.7593 5.9924C24.5728 6.04462 23.9412 6.24109 23.8342 6.05457C23.7273 5.86806 22.1805 1.3892 22.7922 1.4265Z" fill="#B25724"/>
<path d="M20.5217 1.45623C21.7328 1.51592 22.3421 5.90276 22.1482 5.95747C21.9542 6.01218 21.2952 6.20616 21.2007 6.0271C21.1062 5.84805 19.9025 1.4239 20.5217 1.45623Z" fill="#B25724"/>
<path d="M10.706 5.03213C8.94531 5.09181 7.03042 6.52425 6.17493 7.16835C5.31945 7.81245 3.68806 9.13547 4.76487 10.3839C5.84169 11.6323 8.47032 12.1247 9.87789 12.6221C11.2855 13.1194 13.2551 11.1299 14.4512 10.6326C15.6474 10.1352 16.968 9.47866 17.2539 7.99648C17.7488 5.43998 13.2625 4.9426 10.706 5.03213Z" fill="#E5E2DF"/>
<path d="M17.0327 7.23035C16.6176 6.87781 16.1402 6.6062 15.6251 6.42958C15.1194 6.24231 14.5974 6.10245 14.0658 6.01178C13.5381 5.91559 13.0032 5.86484 12.4668 5.86008C11.9479 5.83714 11.4291 5.90704 10.9349 6.06649C10.8268 6.10475 10.724 6.15656 10.629 6.22068C10.5364 6.29325 10.4529 6.37675 10.3803 6.46937C10.1876 6.69665 9.96414 6.89587 9.7163 7.06124C9.24877 7.37459 8.78372 7.64815 8.36593 7.97393C7.94453 8.2883 7.60714 8.70171 7.38361 9.17757C7.17747 9.67702 7.09226 10.2181 7.13492 10.7567C6.98691 10.2105 6.99207 9.63404 7.14984 9.09053C7.33742 8.54215 7.66897 8.05428 8.10978 7.67799C8.53477 7.32345 8.97804 6.99141 9.43777 6.68324C9.54968 6.60366 9.64666 6.52159 9.75111 6.43455C9.84064 6.35408 9.92379 6.26678 9.9998 6.17343C10.0965 6.0406 10.2102 5.92104 10.338 5.81781C10.4673 5.72454 10.6087 5.64925 10.7583 5.59399C11.3138 5.41708 11.8974 5.34539 12.4792 5.3826C13.0424 5.40906 13.6015 5.49238 14.1479 5.63129C14.6934 5.76182 15.2223 5.9537 15.7246 6.20327C16.2316 6.44406 16.6785 6.79495 17.0327 7.23035Z" fill="#F4F4F4"/>
<path d="M16.9979 6.21338C17.3386 6.39492 17.7762 7.01415 17.6171 7.40211C17.4579 7.79006 16.7616 7.79752 16.4209 7.61598C16.0802 7.43443 15.3764 7.05643 15.7097 6.37254C15.9608 5.86273 16.6596 6.03184 16.9979 6.21338Z" fill="#EFD460"/>
<path d="M16.3761 7.35747C15.9594 7.0091 15.4823 6.74021 14.9685 6.56415C14.4621 6.37913 13.9403 6.23932 13.4092 6.14636C12.8813 6.05222 12.3464 6.0023 11.8102 5.99715C11.2915 5.9734 10.7727 6.04246 10.2782 6.20107C10.1705 6.24117 10.0679 6.29376 9.97236 6.35774C9.87915 6.42963 9.79557 6.51321 9.72368 6.60643C9.52629 6.82681 9.3005 7.01999 9.05222 7.1809C8.58469 7.49176 8.11964 7.7678 7.69936 8.09358C7.28121 8.40978 6.94728 8.824 6.72699 9.29971C6.52049 9.79906 6.43526 10.3402 6.47831 10.8789C6.33029 10.3326 6.33545 9.75618 6.49323 9.21267C6.68269 8.66671 7.01503 8.18151 7.45565 7.80759C7.87842 7.42212 8.35838 7.12619 8.78613 6.81284C8.89803 6.73575 8.99502 6.65368 9.09947 6.56415C9.18841 6.48307 9.27151 6.39582 9.34816 6.30303C9.44097 6.17695 9.54869 6.06255 9.66897 5.96233C9.79859 5.8681 9.94093 5.79274 10.0917 5.73851C10.6464 5.56162 11.2292 5.48993 11.8102 5.52713C12.3734 5.55321 12.9325 5.63653 13.4789 5.77581C14.0249 5.90832 14.5545 6.10099 15.058 6.35028C15.5666 6.58407 16.0169 6.92811 16.3761 7.35747V7.35747Z" fill="#F4F4F4"/>
<path d="M16.3413 6.34033C16.6795 6.52188 17.1197 7.14111 16.9605 7.52657C16.8014 7.91204 16.1026 7.92447 15.7643 7.74293C15.4261 7.56139 14.7199 7.18338 15.0506 6.49949C15.3043 5.98969 16.0006 6.15879 16.3413 6.34033Z" fill="#EFD460"/>
<path d="M8.7041 7.06171C8.91311 6.6542 9.21879 6.30412 9.5944 6.04209C9.96877 5.77203 10.3845 5.56458 10.8254 5.42783C11.2727 5.28058 11.7423 5.21242 12.2131 5.22639C12.46 5.2335 12.7043 5.27967 12.9368 5.36317C13.2012 5.45203 13.428 5.6272 13.5809 5.86055L13.6679 6.01225C13.6928 6.05204 13.7102 6.09431 13.74 6.1341C13.7982 6.22053 13.8613 6.30356 13.929 6.38279C14.0658 6.53946 14.2274 6.68867 14.3816 6.84783C14.7185 7.16423 15.012 7.5238 15.2545 7.91719C15.4931 8.32082 15.6416 8.7713 15.6897 9.23772C15.7298 9.69001 15.6979 10.1458 15.5952 10.5881C15.5944 10.1481 15.546 9.70956 15.451 9.27999C15.3496 8.86719 15.1725 8.47678 14.9287 8.12857C14.6738 7.78361 14.381 7.4683 14.0559 7.18854C13.8917 7.03684 13.7276 6.88265 13.5585 6.70608C13.475 6.61787 13.3977 6.52397 13.3272 6.42507C13.2912 6.37387 13.2579 6.32074 13.2277 6.26591L13.1457 6.12664C13.0512 5.98601 12.9131 5.88029 12.7527 5.82573C12.5661 5.75872 12.3711 5.71772 12.1733 5.70387C11.7559 5.67794 11.337 5.71312 10.9299 5.80832C10.0725 5.976 9.292 6.41552 8.7041 7.06171V7.06171Z" fill="#F4F4F4"/>
<path d="M8.72891 6.03223C8.49266 6.21377 8.18678 6.833 8.2962 7.22095C8.40562 7.60891 8.89553 7.61637 9.14422 7.43483C9.39291 7.25328 9.87039 6.87528 9.6416 6.19139C9.45011 5.68158 8.96517 5.85069 8.72891 6.03223Z" fill="#EFD460"/>
<path d="M15.2471 5.5693C14.1941 5.44178 13.1261 5.53926 12.1136 5.85529C11.8681 5.93163 11.6287 6.0264 11.3974 6.13879C11.1721 6.24161 10.9614 6.37373 10.7707 6.53172C10.5937 6.67131 10.4551 6.85358 10.3678 7.06142C10.3488 7.10944 10.3354 7.15952 10.328 7.21064C10.328 7.23053 10.328 7.27778 10.3106 7.31757C10.2932 7.35736 10.2932 7.39715 10.2833 7.43445C10.2466 7.57338 10.1984 7.70898 10.139 7.83981C9.89035 8.3546 9.59938 8.79726 9.35567 9.26479C9.2308 9.48958 9.12435 9.72411 9.03735 9.96609C8.951 10.1842 8.93025 10.4227 8.97766 10.6525C9.01204 10.7612 9.06872 10.8616 9.14409 10.9473C9.21945 11.0329 9.31184 11.1019 9.41535 11.1498C9.64545 11.2663 9.89071 11.35 10.144 11.3985C10.6701 11.4949 11.2033 11.5473 11.7381 11.5552C11.1993 11.6299 10.6538 11.6449 10.1117 11.6C9.83041 11.5757 9.55449 11.5086 9.2935 11.401C9.14675 11.3447 9.01341 11.2583 8.90206 11.1474C8.7907 11.0364 8.70379 10.9034 8.64691 10.7569C8.55715 10.4627 8.55715 10.1484 8.64691 9.85418C8.72374 9.58393 8.82616 9.32162 8.95279 9.07082C9.20148 8.57344 9.47504 8.11088 9.68393 7.64335C9.73666 7.53595 9.78073 7.42452 9.81574 7.31011C9.81574 7.28276 9.81574 7.25789 9.83315 7.23053L9.84807 7.13852C9.85744 7.05369 9.87663 6.97023 9.90527 6.88983C10.0144 6.59424 10.2049 6.33558 10.4549 6.14377C10.9094 5.79329 11.436 5.54785 11.9967 5.42506C12.5353 5.29394 13.089 5.23622 13.643 5.25347C14.192 5.26475 14.7348 5.37162 15.2471 5.5693V5.5693Z" fill="#E5E2DF"/>
<path d="M15.2246 4.77388C15.5976 4.72663 16.2566 4.9977 16.2964 5.42296C16.3362 5.84821 15.7443 6.2685 15.3614 6.31575C14.9784 6.363 14.2124 6.45501 14.1876 5.67911C14.1801 5.08723 14.864 4.82362 15.2246 4.77388Z" fill="#EFD460"/>
<path d="M6.76929 5.79563C7.28208 5.60137 7.825 5.49867 8.37332 5.49224C8.92731 5.47499 9.4811 5.53271 10.0196 5.66383C10.5807 5.78551 11.1075 6.03106 11.5615 6.38254C11.8112 6.57464 12.0016 6.83321 12.1111 7.1286C12.1391 7.20917 12.1583 7.29256 12.1683 7.37729L12.1832 7.47179C12.1832 7.49666 12.1832 7.52401 12.2006 7.55137C12.2318 7.66842 12.2734 7.78245 12.325 7.89207C12.5314 8.3596 12.8223 8.82465 13.0536 9.31953C13.1839 9.5667 13.2905 9.82566 13.3719 10.093C13.4617 10.3872 13.4617 10.7015 13.3719 10.9957C13.3156 11.141 13.2297 11.2731 13.1197 11.3835C13.0097 11.494 12.8779 11.5804 12.7328 11.6373C12.4722 11.7456 12.196 11.8119 11.9146 11.8338C11.3724 11.8791 10.8269 11.8632 10.2882 11.7865C10.822 11.7799 11.3544 11.7292 11.8798 11.6348C12.1322 11.5859 12.3766 11.5022 12.606 11.3861C12.7095 11.3382 12.8019 11.2692 12.8772 11.1836C12.9526 11.0979 13.0093 10.9975 13.0437 10.8887C13.0911 10.659 13.0703 10.4205 12.984 10.2024C12.8963 9.96025 12.7908 9.72501 12.6681 9.49859C12.4195 9.03354 12.1235 8.58839 11.8823 8.0761C11.819 7.94237 11.7674 7.80342 11.7281 7.66079C11.7281 7.62349 11.7107 7.5837 11.7008 7.54391C11.6908 7.50412 11.7008 7.45687 11.6833 7.43697C11.6756 7.38617 11.6631 7.33621 11.646 7.28776C11.558 7.07966 11.4196 6.89675 11.2432 6.75557C11.0518 6.59722 10.8402 6.46508 10.614 6.36264C10.3829 6.24982 10.1435 6.15504 9.89777 6.07914C8.88672 5.7645 7.82043 5.66787 6.76929 5.79563V5.79563Z" fill="#E5E2DF"/>
<path d="M6.79162 5.01221C6.41859 4.96495 5.76206 5.23354 5.71978 5.66128C5.6775 6.08902 6.27435 6.50682 6.65733 6.56401C7.04031 6.62121 7.80378 6.70328 7.82865 5.92737C7.83611 5.32058 7.15471 5.05697 6.79162 5.01221Z" fill="#EFD460"/>
<path d="M14.3667 6.16347C13.4307 6.06561 12.4845 6.1604 11.5864 6.442C11.3698 6.50853 11.1586 6.59167 10.9548 6.69069C10.7558 6.78012 10.57 6.89643 10.4027 7.03636C10.2497 7.15956 10.1293 7.31839 10.052 7.49892C10.037 7.54017 10.0253 7.58259 10.0172 7.62575C10.0172 7.64067 10.0172 7.68544 10.0023 7.72025C9.98736 7.75507 9.98736 7.79486 9.97742 7.82719C9.94321 7.95542 9.89743 8.08027 9.84064 8.20022C9.62428 8.66029 9.34326 9.05321 9.13934 9.46604C9.02807 9.66435 8.93326 9.87146 8.85584 10.0853C8.78128 10.2758 8.7623 10.4837 8.80112 10.6846C8.8297 10.7798 8.87818 10.8678 8.94335 10.9428C9.00851 11.0179 9.08888 11.0782 9.17913 11.1198C9.38198 11.2223 9.59783 11.2968 9.82074 11.3411C10.2878 11.4283 10.7609 11.4791 11.2358 11.4928C10.7567 11.563 10.2712 11.5797 9.78841 11.5426C9.53729 11.5219 9.29076 11.4632 9.05727 11.3685C8.92664 11.3171 8.80799 11.2393 8.70873 11.1401C8.60946 11.0408 8.53171 10.9222 8.48032 10.7915C8.4006 10.5263 8.4006 10.2435 8.48032 9.97833C8.54857 9.73581 8.63932 9.50019 8.75139 9.27455C8.96526 8.83437 9.21395 8.41906 9.39797 8.00873C9.44276 7.91191 9.47856 7.81119 9.50491 7.70782C9.51133 7.68494 9.51631 7.66168 9.51983 7.63818L9.53227 7.55612C9.54348 7.48183 9.56095 7.40862 9.58449 7.33727C9.68445 7.07078 9.85668 6.83741 10.0819 6.66333C10.4897 6.34995 10.9619 6.13083 11.4646 6.02172C11.9455 5.90589 12.4401 5.85734 12.9343 5.87748C13.425 5.88727 13.91 5.98411 14.3667 6.16347V6.16347Z" fill="#E5E2DF"/>
<path d="M14.3492 5.46769C14.68 5.4279 15.2644 5.66664 15.3017 6.04465C15.339 6.42265 14.8043 6.79071 14.4785 6.84045C14.1527 6.89018 13.4589 6.96479 13.4365 6.27344C13.4191 5.74871 14.0185 5.50997 14.3492 5.46769Z" fill="#EFD460"/>
<path d="M7.90088 12.3562C8.83695 12.454 9.78315 12.3593 10.6812 12.0777C10.8978 12.0111 11.109 11.928 11.3129 11.829C11.5118 11.7395 11.6976 11.6232 11.865 11.4833C12.0179 11.3601 12.1383 11.2013 12.2156 11.0207C12.2307 10.9795 12.2423 10.9371 12.2504 10.8939C12.2504 10.879 12.2504 10.8342 12.2653 10.7994C12.2803 10.7646 12.2803 10.7273 12.2902 10.6925C12.3244 10.5642 12.3702 10.4394 12.427 10.3194C12.6433 9.85936 12.9244 9.46644 13.1283 9.05362C13.2396 8.8553 13.3344 8.6482 13.4118 8.43439C13.4863 8.24381 13.5053 8.03598 13.4665 7.83505C13.4379 7.73987 13.3894 7.65185 13.3243 7.57682C13.2591 7.50179 13.1787 7.44147 13.0885 7.39985C12.8856 7.29733 12.6698 7.22287 12.4469 7.17852C11.9799 7.09132 11.5068 7.0406 11.0319 7.02682C11.5111 6.95746 11.9965 6.94161 12.4792 6.97957C12.7304 6.99812 12.9771 7.05603 13.2104 7.15116C13.3417 7.20254 13.461 7.28055 13.5607 7.38027C13.6604 7.47999 13.7384 7.59927 13.7898 7.7306C13.8697 7.99579 13.8697 8.27862 13.7898 8.54381C13.7219 8.78646 13.6312 9.02211 13.5187 9.24759C13.3049 9.68777 13.0562 10.1031 12.8721 10.5134C12.8273 10.6102 12.7916 10.711 12.7652 10.8143C12.7588 10.8372 12.7538 10.8605 12.7503 10.884L12.7378 10.966C12.7266 11.0403 12.7092 11.1135 12.6856 11.1849C12.5857 11.4514 12.4134 11.6847 12.1882 11.8588C11.7804 12.1722 11.3082 12.3913 10.8055 12.5004C10.3247 12.6163 9.83003 12.6648 9.3358 12.6447C8.84417 12.6344 8.35829 12.5367 7.90088 12.3562V12.3562Z" fill="#E5E2DF"/>
<path d="M7.91831 13.0528C7.58756 13.0926 7.00314 12.8538 6.96584 12.4758C6.92854 12.0978 7.46322 11.7298 7.789 11.6825C8.11478 11.6353 8.80861 11.5557 8.831 12.247C8.8484 12.7817 8.24907 13.0105 7.91831 13.0528Z" fill="#EFD460"/>
<path d="M7.31897 9.50121C8.06268 10.0789 8.90539 10.5162 9.80584 10.7919C10.0228 10.8596 10.2448 10.9095 10.4698 10.9411C10.6833 10.978 10.9005 10.9881 11.1164 10.971C11.3008 10.9576 11.4784 10.8959 11.6312 10.7919C11.709 10.7169 11.7783 10.6335 11.8376 10.5432C11.9294 10.4429 12.0311 10.3521 12.141 10.2721C12.5538 9.97123 12.9816 9.77477 13.3646 9.51116C13.7475 9.24755 14.1106 8.95907 14.1106 8.57609C14.0993 8.36892 14.0266 8.16979 13.9017 8.00411C13.7671 7.81735 13.6147 7.64411 13.4466 7.48684C13.0939 7.16975 12.7218 6.8749 12.3325 6.604C12.7703 6.80466 13.1869 7.04877 13.5759 7.33266C13.7778 7.47572 13.9615 7.64273 14.1231 7.83003C14.3039 8.03259 14.4199 8.28463 14.4563 8.55371C14.4656 8.83987 14.3661 9.11891 14.1778 9.33459C14.0174 9.53454 13.8299 9.71115 13.6207 9.85932C13.2203 10.1478 12.7951 10.3841 12.4419 10.6501C12.3592 10.7114 12.2833 10.7814 12.2156 10.859C12.1433 10.9677 12.06 11.0685 11.9669 11.16C11.7391 11.3396 11.4609 11.4439 11.1711 11.4584C10.6616 11.4844 10.1525 11.3995 9.67901 11.2097C9.21941 11.035 8.78466 10.8009 8.38584 10.5134C7.97789 10.2358 7.6176 9.894 7.31897 9.50121V9.50121Z" fill="#E5E2DF"/>
<path d="M7.03793 10.1204C6.73205 9.96873 6.3242 9.43405 6.456 9.08589C6.58781 8.73772 7.20207 8.70291 7.51292 8.85212C7.82378 9.00133 8.45545 9.31468 8.17941 9.92894C7.96802 10.3965 7.34382 10.2696 7.03793 10.1204Z" fill="#EFD460"/>
<path d="M7.19202 8.59124C7.93481 9.17033 8.7778 9.60784 9.67889 9.88192C9.89496 9.9496 10.1162 9.9995 10.3404 10.0311C10.5545 10.0694 10.7727 10.0795 10.9895 10.061C11.1787 10.0472 11.3608 9.98273 11.5167 9.87446C11.5932 9.79893 11.6615 9.71558 11.7206 9.62578C11.8123 9.52465 11.914 9.43301 12.024 9.35222C12.4368 9.05131 12.8646 8.85484 13.2476 8.59124C13.6305 8.32763 13.9936 8.03915 13.9936 7.65866C13.9841 7.45038 13.9112 7.24997 13.7847 7.08419C13.6522 6.89655 13.4996 6.72393 13.3296 6.56941C12.9786 6.24957 12.6064 5.95378 12.2155 5.68408C12.6533 5.88484 13.0698 6.12894 13.4589 6.41274C13.6598 6.55601 13.8427 6.72301 14.0036 6.91011C14.1858 7.11213 14.3006 7.36597 14.3318 7.63628C14.3427 7.92299 14.244 8.20308 14.0558 8.41964C13.8898 8.61575 13.6993 8.78961 13.4888 8.93691C13.0909 9.22539 12.6656 9.45916 12.3125 9.72774C12.2291 9.78816 12.1524 9.85736 12.0837 9.93415C12.0114 10.0428 11.9281 10.1436 11.835 10.2351C11.6074 10.4152 11.3291 10.5195 11.0392 10.5335C10.5297 10.5598 10.0205 10.475 9.54708 10.2848C9.0867 10.1101 8.65112 9.87605 8.25142 9.58847C7.84715 9.31496 7.48945 8.97825 7.19202 8.59124V8.59124Z" fill="#E5E2DF"/>
<path d="M6.90609 9.21027C6.6002 9.06106 6.19484 8.52389 6.32416 8.17573C6.45348 7.82757 7.07022 7.79275 7.38357 7.94196C7.69691 8.09118 8.32609 8.40452 8.05005 9.01878C7.84115 9.48631 7.21695 9.35948 6.90609 9.21027Z" fill="#EFD460"/>
<path d="M9.50476 6.41993C9.79919 6.03616 10.1516 5.70055 10.5492 5.42519C10.9498 5.13905 11.3852 4.90506 11.8449 4.72886C12.3184 4.53901 12.8275 4.45416 13.337 4.48017C13.6266 4.49436 13.9042 4.59968 14.1303 4.78109C14.2243 4.87175 14.3077 4.97269 14.379 5.082C14.4474 5.15813 14.5232 5.22727 14.6053 5.28841C14.9585 5.55699 15.3837 5.78578 15.7841 6.07923C15.9964 6.21932 16.1888 6.38746 16.3561 6.57909C16.5437 6.79515 16.6432 7.07393 16.6346 7.35997C16.6006 7.63025 16.4863 7.88409 16.3064 8.08863C16.1448 8.27593 15.9611 8.44294 15.7592 8.586C15.3702 8.86989 14.9536 9.114 14.5158 9.31465C14.9063 9.04534 15.2785 8.75041 15.6299 8.43181C15.7974 8.27484 15.9498 8.10249 16.085 7.91703C16.2094 7.7503 16.2812 7.5503 16.2914 7.34256C16.2914 6.95959 15.9184 6.65619 15.5454 6.4075C15.1723 6.15881 14.7347 5.94743 14.3218 5.64652C14.2126 5.56656 14.1118 5.47574 14.0209 5.37545C13.9611 5.28549 13.8919 5.20213 13.8145 5.12676C13.6594 5.0166 13.477 4.95121 13.2873 4.93776C13.0705 4.9207 12.8525 4.93072 12.6382 4.9676C12.4145 5.00162 12.1934 5.05149 11.9767 5.11681C11.0804 5.39739 10.2427 5.83898 9.50476 6.41993V6.41993Z" fill="#E5E2DF"/>
<path d="M9.22384 5.80344C8.91547 5.95265 8.5101 6.48733 8.64191 6.83798C8.77371 7.18863 9.38797 7.21847 9.69883 7.06926C10.0097 6.92004 10.6364 6.60919 10.3653 5.99244C10.1539 5.5274 9.52972 5.65174 9.22384 5.80344Z" fill="#EFD460"/>
<path d="M7.19202 8.58859C7.48515 8.20365 7.83773 7.86786 8.2365 7.59384C8.6362 7.30627 9.07178 7.07218 9.53216 6.89752C10.0059 6.70857 10.5148 6.62376 11.0243 6.64883C11.3142 6.66497 11.592 6.77004 11.8201 6.94974C11.9131 7.0412 11.9965 7.14204 12.0688 7.25065C12.1374 7.32744 12.2141 7.39664 12.2976 7.45706C12.6507 7.72565 13.076 7.95444 13.4739 8.24789C13.6843 8.39519 13.8749 8.56905 14.0409 8.76516C14.2291 8.98172 14.3278 9.26181 14.3169 9.54852C14.2857 9.81883 14.1709 10.0727 13.9886 10.2747C13.8278 10.4618 13.6449 10.6288 13.444 10.7721C13.0549 11.0559 12.6383 11.3 12.2006 11.5007C12.5915 11.231 12.9637 10.9352 13.3147 10.6154C13.4847 10.4609 13.6373 10.2883 13.7698 10.1006C13.8958 9.93461 13.9687 9.73433 13.9787 9.52614C13.9787 9.14565 13.6057 8.83976 13.2326 8.59356C12.8596 8.34736 12.4219 8.13349 12.0091 7.83258C11.9016 7.7514 11.8025 7.65977 11.7132 7.55903C11.6541 7.46923 11.5857 7.38587 11.5092 7.31034C11.3534 7.20207 11.1713 7.13765 10.982 7.12382C10.7653 7.10534 10.5471 7.11537 10.3329 7.15367C10.1087 7.1853 9.8875 7.2352 9.67143 7.30288C8.77332 7.57629 7.93295 8.01207 7.19202 8.58859V8.58859Z" fill="#E5E2DF"/>
<path d="M6.90609 7.96919C6.6002 8.1184 6.19484 8.65308 6.32416 9.00373C6.45348 9.35438 7.07022 9.38671 7.38357 9.23749C7.69691 9.08828 8.32609 8.77494 8.05005 8.16068C7.84115 7.69315 7.21695 7.81998 6.90609 7.96919Z" fill="#EFD460"/>
<path d="M15.7867 8.86201C15.3106 9.01451 14.8164 9.10316 14.317 9.12562C13.8138 9.15459 13.309 9.13377 12.8099 9.06345C12.2998 8.99693 11.8021 8.85618 11.3327 8.64565C11.0768 8.53548 10.8452 8.37573 10.6513 8.17563C10.5401 8.05907 10.4553 7.91998 10.4026 7.76779L10.3603 7.58127C10.3485 7.5349 10.3318 7.48989 10.3106 7.44698C10.1166 7.05903 9.79333 6.66361 9.52475 6.23836C9.37542 6.02063 9.25583 5.78395 9.16913 5.53457C9.12087 5.39483 9.10059 5.24695 9.10944 5.09937C9.11886 4.93735 9.18084 4.78281 9.28601 4.65919C9.48328 4.45767 9.73917 4.32363 10.0172 4.27622C10.2623 4.22109 10.5121 4.18944 10.7632 4.18172C11.2618 4.16515 11.7609 4.19011 12.2553 4.25632C11.758 4.28368 11.2606 4.31601 10.7881 4.38813C10.5512 4.42349 10.3176 4.47754 10.0893 4.54977C9.88187 4.6027 9.6949 4.7161 9.55211 4.87555C9.50562 4.95608 9.48114 5.04742 9.48114 5.1404C9.48114 5.23339 9.50562 5.32473 9.55211 5.40526C9.64291 5.6143 9.75633 5.81277 9.89032 5.99713C10.0271 6.19359 10.1763 6.38508 10.3255 6.58403C10.4879 6.78878 10.6304 7.00863 10.7508 7.24057C10.783 7.30818 10.8104 7.37799 10.8328 7.44947C10.8328 7.48677 10.8527 7.53651 10.8577 7.56884C10.8642 7.58664 10.8691 7.60494 10.8726 7.62355C10.9044 7.70543 10.9527 7.77991 11.0144 7.84239C11.1682 7.99318 11.3465 8.11679 11.5416 8.20796C11.9677 8.40391 12.415 8.54994 12.8746 8.64316C13.8304 8.85077 14.8105 8.92442 15.7867 8.86201V8.86201Z" fill="#F4F4F4"/>
<path d="M15.7643 9.46399C16.1374 9.4988 16.7939 9.29239 16.8337 8.96661C16.8735 8.64083 16.2816 8.30511 15.9086 8.28024C15.5355 8.25537 14.7621 8.1733 14.7372 8.77761C14.7174 9.22276 15.3913 9.42917 15.7643 9.46399Z" fill="#EFD460"/>
<path d="M7.74414 8.12371C7.95202 7.71552 8.25687 7.36456 8.63195 7.1016C9.01169 6.83297 9.43129 6.62569 9.87539 6.48735C10.3225 6.34255 10.7908 6.27444 11.2606 6.28591C11.5082 6.29421 11.7531 6.34034 11.9867 6.42269C12.2502 6.51203 12.4762 6.68716 12.6284 6.92006L12.7154 7.07176C12.7428 7.11155 12.7577 7.15383 12.79 7.19362C12.8482 7.28005 12.9113 7.36308 12.979 7.4423C13.1133 7.59898 13.2749 7.74819 13.4316 7.90735C13.7678 8.22439 14.0612 8.58387 14.3045 8.9767C14.5371 9.38136 14.682 9.83044 14.7298 10.2947C14.7689 10.7472 14.7361 11.2029 14.6328 11.6451C14.6331 11.2051 14.5847 10.7664 14.4885 10.337C14.3887 9.92338 14.2124 9.53203 13.9688 9.18311C13.7118 8.83982 13.4192 8.52471 13.0959 8.24308C12.9318 8.09138 12.7676 7.93968 12.5985 7.76311C12.5194 7.67201 12.4455 7.57653 12.3772 7.47712C12.3398 7.42547 12.3057 7.37148 12.2752 7.31547L12.1932 7.1787C12.1009 7.03705 11.9632 6.93095 11.8027 6.87778C11.6163 6.80986 11.4212 6.76883 11.2233 6.75593C10.8059 6.72905 10.3869 6.76425 9.97984 6.86038C9.11733 7.0279 8.33266 7.47129 7.74414 8.12371V8.12371Z" fill="#E8E6E2"/>
<path d="M7.76654 7.1064C7.53029 7.28794 7.22441 7.90717 7.33632 8.29264C7.44823 8.6781 7.93317 8.69054 8.16942 8.50899C8.40567 8.32745 8.89559 7.94945 8.66679 7.26556C8.49023 6.75575 8.00528 6.92237 7.76654 7.1064Z" fill="#EFD460"/>
<path d="M10.6015 9.00129C10.0149 8.35157 9.23432 7.90851 8.37576 7.73795C7.96873 7.64183 7.54969 7.60663 7.13232 7.63351C6.93352 7.64614 6.73756 7.68717 6.55039 7.75536C6.38991 7.80853 6.25225 7.91463 6.15995 8.05627L6.07789 8.19305C6.04739 8.24906 6.01333 8.30305 5.97593 8.3547C5.90501 8.4526 5.82862 8.54642 5.74713 8.63572C5.58549 8.81228 5.42135 8.96398 5.24976 9.11568C4.92607 9.39407 4.63266 9.70582 4.37438 10.0458C4.13081 10.3938 3.95453 10.7843 3.85462 11.1972C3.75851 11.6274 3.71014 12.0669 3.71039 12.5078C3.60703 12.0656 3.5743 11.6098 3.6134 11.1574C3.66385 10.6915 3.81216 10.2415 4.0486 9.83687C4.29107 9.44783 4.58279 9.09175 4.91652 8.77747C5.07319 8.61831 5.23484 8.4691 5.36913 8.31242C5.43682 8.23319 5.49992 8.15016 5.55813 8.06373C5.58569 8.02482 5.61061 7.98411 5.63274 7.94188L5.71978 7.79018C5.87261 7.55683 6.09947 7.38166 6.36388 7.2928C6.59669 7.21048 6.84076 7.16435 7.08756 7.15603C7.55734 7.14456 8.02569 7.21266 8.47275 7.35746C8.91685 7.4958 9.33645 7.70309 9.71618 7.97172C10.0904 8.23805 10.3942 8.59139 10.6015 9.00129V9.00129Z" fill="#E8E6E2"/>
<path d="M10.5767 7.98399C10.8254 8.16554 11.1188 8.78477 11.0069 9.17023C10.895 9.5557 10.4101 9.56813 10.1738 9.38659C9.93755 9.20505 9.44764 8.82704 9.67643 8.14315C9.853 7.63335 10.3404 7.80743 10.5767 7.98399Z" fill="#EFD460"/>
<path d="M4.73755 9.17784C5.03871 8.80696 5.4195 8.50862 5.85167 8.30495C6.28112 8.08767 6.73425 7.92077 7.20204 7.80758C7.66809 7.68355 8.14405 7.60034 8.62453 7.55889C9.10835 7.51792 9.59514 7.52792 10.0769 7.58873C10.5904 7.63 11.085 7.80115 11.5143 8.08611C11.5729 8.13134 11.6271 8.18215 11.6759 8.2378C11.7008 8.26516 11.7232 8.29749 11.748 8.32733L11.7928 8.38702C11.854 8.4661 11.9241 8.53786 12.0017 8.60089C12.1703 8.7408 12.3538 8.86173 12.5488 8.96148C12.7503 9.07091 12.9591 9.18033 13.1705 9.2997C13.4069 9.41732 13.609 9.59373 13.7574 9.81199C13.8353 9.94011 13.8603 10.0935 13.8271 10.2397C13.7951 10.368 13.7385 10.4887 13.6604 10.5954C13.5111 10.7844 13.3362 10.9518 13.1407 11.0927C13.2867 10.9116 13.4134 10.7158 13.5187 10.5083C13.5646 10.414 13.5924 10.312 13.6008 10.2074C13.6053 10.1176 13.577 10.0292 13.5212 9.95872C13.3717 9.81307 13.194 9.69964 12.9989 9.62548C12.7925 9.53098 12.5712 9.44891 12.3524 9.34446C12.1234 9.2414 11.9059 9.11471 11.7033 8.96646C11.5969 8.88292 11.5002 8.78784 11.4148 8.68295L11.3526 8.60337C11.3377 8.58845 11.3278 8.57105 11.3128 8.55612C11.2828 8.52461 11.2504 8.4955 11.2159 8.46908C10.8488 8.24675 10.4367 8.10911 10.0097 8.06621C9.09958 7.9529 8.17765 7.97553 7.27416 8.13336C6.81849 8.20716 6.37061 8.32288 5.93622 8.47903C5.4963 8.63458 5.08965 8.87165 4.73755 9.17784V9.17784Z" fill="#F4F4F4"/>
<path d="M4.77231 8.16061C4.43409 8.34215 3.99392 8.96138 4.15308 9.34934C4.31224 9.73729 5.01105 9.74475 5.34926 9.56321C5.68748 9.38167 6.39375 9.00366 6.06299 8.31977C5.80933 7.80747 5.11301 7.97907 4.77231 8.16061Z" fill="#EFD460"/>
<path d="M14.4339 9.25998C13.8486 8.60989 13.0686 8.16669 12.2106 7.99665C11.8036 7.90052 11.3845 7.86532 10.9672 7.8922C10.7692 7.9051 10.5741 7.94614 10.3877 8.01406C10.2241 8.06216 10.0819 8.16485 9.98485 8.30502L9.90278 8.4418C9.87228 8.49781 9.83822 8.5518 9.80082 8.60345C9.72621 8.70044 9.65161 8.79991 9.57203 8.88447C9.41038 9.06103 9.24625 9.21273 9.07465 9.36443C8.7513 9.64607 8.4587 9.96118 8.20176 10.3045C7.95817 10.6534 7.78189 11.0447 7.682 11.4584C7.58726 11.8929 7.54138 12.3367 7.54522 12.7814C7.44187 12.3392 7.40914 11.8834 7.44824 11.431C7.49869 10.9651 7.647 10.5151 7.88344 10.1105C8.12675 9.71766 8.42018 9.35818 8.75633 9.04114C8.91052 8.88198 9.07465 8.73277 9.20894 8.57609C9.27663 8.49687 9.33973 8.41383 9.39794 8.32741C9.43027 8.28762 9.44519 8.24534 9.47255 8.20555L9.5571 8.05385C9.71148 7.82194 9.93779 7.64718 10.2012 7.55648C10.4348 7.47394 10.6797 7.4278 10.9274 7.4197C11.3972 7.40823 11.8655 7.47634 12.3126 7.62113C12.7567 7.75948 13.1763 7.96676 13.556 8.23539C13.9278 8.50027 14.2291 8.85201 14.4339 9.25998V9.25998Z" fill="#F4F4F4"/>
<path d="M14.4114 8.24258C14.6601 8.42412 14.9536 9.04335 14.8417 9.42882C14.7298 9.81428 14.2448 9.82672 14.0086 9.64518C13.7723 9.46363 13.2799 9.08563 13.5112 8.40174C13.6878 7.89193 14.1727 8.05606 14.4114 8.24258Z" fill="#EFD460"/>
<path d="M5.16528 6.69847C5.67927 6.50539 6.2228 6.40274 6.7718 6.39507C7.3258 6.37782 7.87958 6.43554 8.41811 6.56666C8.97867 6.68992 9.50513 6.93532 9.95997 7.28537C10.2099 7.47718 10.4005 7.73584 10.5096 8.03143C10.537 8.11218 10.5561 8.1955 10.5668 8.28012L10.5817 8.37213C10.5817 8.39949 10.5817 8.42436 10.5991 8.45171C10.6305 8.56837 10.6713 8.6823 10.721 8.79241C10.9299 9.25995 11.2183 9.72499 11.4521 10.2199C11.5777 10.4712 11.6801 10.7334 11.758 11.0032C11.8452 11.2978 11.8452 11.6114 11.758 11.906C11.7016 12.0471 11.6172 12.1754 11.51 12.2831C11.4027 12.3909 11.2747 12.4757 11.1338 12.5327C10.8728 12.6403 10.5969 12.7074 10.3156 12.7316C9.77346 12.7766 9.22802 12.7616 8.68918 12.6869C9.22389 12.6796 9.75708 12.628 10.2833 12.5327C10.5365 12.4838 10.7817 12.4001 11.0119 12.284C11.1151 12.236 11.2072 12.167 11.2822 12.0813C11.3571 11.9957 11.4133 11.8953 11.4471 11.7866C11.4915 11.5588 11.469 11.323 11.3825 11.1077C11.2974 10.8653 11.1917 10.6307 11.0666 10.4064C10.8179 9.93886 10.522 9.49371 10.2808 8.98142C10.2228 8.84688 10.1754 8.70802 10.139 8.56611C10.1273 8.52781 10.1181 8.48876 10.1117 8.44923C10.1117 8.40944 10.1117 8.36218 10.0943 8.34229C10.0857 8.29142 10.0724 8.24147 10.0545 8.19308C9.96548 7.98281 9.82319 7.79937 9.64165 7.66089C9.45096 7.50289 9.24025 7.37078 9.01496 7.26796C8.7837 7.15557 8.54428 7.0608 8.29874 6.98446C7.2862 6.6688 6.21824 6.57133 5.16528 6.69847V6.69847Z" fill="#F4F4F4"/>
<path d="M5.19016 5.915C4.81713 5.86775 4.16059 6.13882 4.1208 6.56407C4.08101 6.98933 4.67289 7.40961 5.04592 7.45686C5.41895 7.50411 6.19237 7.59612 6.21724 6.82022C6.23713 6.22834 5.56319 5.95976 5.19016 5.915Z" fill="#EFD460"/>
<path d="M5.026 8.17816C5.53939 7.98604 6.08194 7.88341 6.63003 7.87477C7.18414 7.85836 7.73792 7.91692 8.27634 8.04885C8.83674 8.1712 9.36323 8.41576 9.8182 8.76507C10.0676 8.95745 10.258 9.21593 10.3678 9.51113C10.3958 9.5917 10.415 9.67509 10.425 9.75981L10.4399 9.85183C10.4399 9.87918 10.4399 9.90654 10.4573 9.9339C10.4887 10.0505 10.5295 10.1645 10.5792 10.2746C10.7881 10.7396 11.0766 11.2072 11.3103 11.6996C11.4355 11.9519 11.5379 12.2149 11.6162 12.4854C11.707 12.7754 11.7122 13.0854 11.6311 13.3782C11.5748 13.5246 11.4887 13.6576 11.3783 13.7689C11.2678 13.8802 11.1354 13.9674 10.9895 14.0248C10.7284 14.1316 10.4525 14.1979 10.1713 14.2213C9.6293 14.267 9.08386 14.2529 8.54493 14.179C9.0795 14.1694 9.6125 14.1178 10.139 14.0248C10.392 13.9752 10.6371 13.8915 10.8677 13.7761C10.9712 13.7282 11.0636 13.6592 11.1389 13.5736C11.2143 13.4879 11.271 13.3875 11.3054 13.2787C11.351 13.0481 11.3303 12.8092 11.2457 12.5899C11.1577 12.3483 11.0513 12.1138 10.9273 11.8886C10.6787 11.421 10.3827 10.9784 10.144 10.4661C10.0806 10.3307 10.029 10.1901 9.9898 10.0458C9.97806 10.0083 9.96892 9.97013 9.96244 9.93141C9.96244 9.88913 9.96244 9.84188 9.94504 9.82447C9.93708 9.77347 9.92374 9.72345 9.90525 9.67526C9.81904 9.46612 9.68026 9.2828 9.50237 9.14307C9.31178 8.98428 9.10106 8.85132 8.87568 8.74766C8.64115 8.6356 8.39838 8.54165 8.14951 8.46664C7.14009 8.15251 6.07588 8.05422 5.026 8.17816V8.17816Z" fill="#F4F4F4"/>
<path d="M5.04587 7.39499C4.67284 7.35023 4.01631 7.61881 3.97652 8.04407C3.93673 8.46932 4.5286 8.89209 4.90163 8.93685C5.27466 8.98162 6.04808 9.0786 6.07295 8.30021C6.09285 7.71082 5.41393 7.44224 5.04587 7.39499Z" fill="#EFD460"/>
<path d="M7.3512 11.0729C8.32406 11.1345 9.30075 11.0608 10.2534 10.8541C10.7167 10.7617 11.1675 10.6148 11.5963 10.4164C11.7936 10.3243 11.9736 10.1989 12.1285 10.0458C12.1887 9.98262 12.236 9.90828 12.2677 9.82697L12.2827 9.76978C12.2827 9.73993 12.2976 9.68771 12.31 9.65289C12.3312 9.58133 12.3578 9.5115 12.3896 9.444C12.5096 9.2176 12.6503 9.00281 12.8099 8.80238C12.9591 8.60343 13.1083 8.41194 13.2451 8.21548C13.3816 8.03101 13.4968 7.83161 13.5883 7.62112C13.6325 7.53975 13.6545 7.4481 13.6519 7.3555C13.6492 7.2629 13.6222 7.17264 13.5734 7.0939C13.4305 6.934 13.2436 6.8198 13.0362 6.76564C12.8076 6.69513 12.574 6.64193 12.3374 6.60648C11.8574 6.53436 11.365 6.50203 10.8726 6.47467C11.367 6.40827 11.8661 6.38332 12.3647 6.40007C12.616 6.40644 12.8659 6.4381 13.1108 6.49457C13.3888 6.54198 13.6447 6.67602 13.8419 6.87754C13.9474 6.9985 14.0111 7.15025 14.0235 7.31026C14.0303 7.45795 14.0092 7.60559 13.9613 7.74546C13.8794 7.99409 13.7648 8.23075 13.6206 8.44925C13.3495 8.87202 13.0262 9.26992 12.8348 9.65787C12.8139 9.70121 12.7964 9.74611 12.7825 9.79216L12.7402 9.97867C12.6879 10.131 12.603 10.2702 12.4916 10.3865C12.2974 10.5852 12.067 10.7448 11.8126 10.8565C11.3384 11.0675 10.8356 11.2074 10.3205 11.2718C9.82646 11.3422 9.32669 11.3638 8.8284 11.3365C8.32649 11.3145 7.82974 11.2259 7.3512 11.0729V11.0729Z" fill="#F4F4F4"/>
<path d="M7.37363 11.6749C7.0006 11.7097 6.34407 11.5033 6.30428 11.1775C6.26449 10.8517 6.85636 10.5259 7.22939 10.4911C7.60242 10.4563 8.37584 10.3842 8.40071 10.9885C8.4206 11.4336 7.74666 11.64 7.37363 11.6749Z" fill="#EFD460"/>
<path d="M15.3963 10.3342C14.8079 9.68031 14.0219 9.23667 13.1581 9.07086C12.7511 8.97444 12.332 8.93924 11.9146 8.96642C11.7166 8.97904 11.5215 9.02008 11.3352 9.08827C11.1743 9.14199 11.0361 9.2479 10.9423 9.38918L10.8602 9.52596C10.8305 9.58192 10.7973 9.63592 10.7607 9.68761C10.689 9.78555 10.6118 9.87937 10.5294 9.96863C10.3703 10.1452 10.2062 10.2969 10.0321 10.4486C9.70809 10.7296 9.41542 11.0447 9.15918 11.3886C8.92018 11.7356 8.74656 12.1233 8.64688 12.5326C8.55077 12.9628 8.5024 13.4023 8.50264 13.8432C8.40013 13.4009 8.36823 12.9451 8.40814 12.4928C8.45657 12.0268 8.60411 11.5766 8.84086 11.1723C9.08503 10.7794 9.37929 10.4199 9.71624 10.1029C9.87042 9.94376 10.0321 9.79454 10.1664 9.63787C10.2348 9.55929 10.298 9.47621 10.3554 9.38918C10.3835 9.34977 10.4084 9.3082 10.43 9.26484L10.517 9.11563C10.6698 8.88228 10.8967 8.70711 11.1611 8.61825C11.3931 8.5415 11.6355 8.50041 11.8798 8.4964C12.3496 8.48474 12.818 8.55285 13.265 8.69783C13.7093 8.83563 14.129 9.04295 14.5084 9.31209C14.8826 9.57602 15.1873 9.92674 15.3963 10.3342V10.3342Z" fill="#F4F4F4"/>
<path d="M15.3614 9.31463C15.6101 9.49866 15.9036 10.1154 15.7941 10.5034C15.6847 10.8913 15.1973 10.9013 14.9586 10.7197C14.7198 10.5382 14.2324 10.1602 14.4612 9.47627C14.6477 8.96398 15.1351 9.13309 15.3614 9.31463Z" fill="#EFD460"/>
<path d="M30.4517 16.5117C29.7057 16.5117 28.9149 16.5117 28.1215 16.4869C26.0176 16.4396 23.8939 16.3128 22.5783 16.0318C21.5438 15.8129 21.0091 15.4971 21.3846 15.0494C21.4716 14.945 21.5736 14.8008 21.6855 14.6515C21.8894 14.368 22.1332 14.0099 22.4167 13.612L22.6255 13.3211C22.7176 13.1942 22.8121 13.0724 22.9165 12.9331C24.6399 10.6601 27.4774 7.8201 31.3719 9.63552C35.3086 11.4683 35.239 11.4932 36.3307 12.6596C39.1757 15.701 34.7018 16.5117 30.4517 16.5117Z" fill="#E2C447"/>
<path d="M23.7148 12.9926C23.8367 13.9401 25.0304 14.3007 27.47 12.3584C29.9096 10.4162 32.7969 13.0821 32.598 13.7138C32.399 14.3454 33.9956 13.5347 33.9956 13.5347C33.9956 13.5347 33.3913 9.24238 28.6413 10.4162C23.8914 11.59 23.7148 12.9926 23.7148 12.9926Z" fill="#FCDC59"/>
<path d="M31.7027 14.2886C31.7027 14.2886 31.5584 15.4102 28.1216 16.4895C27.7187 16.6139 27.2736 16.7382 26.7762 16.8626C24.6549 17.3873 23.3592 16.8203 22.5783 16.0344C22.1923 15.638 21.8888 15.1689 21.6855 14.6542C21.9342 14.3036 22.2501 13.8385 22.6256 13.3237C22.7847 13.3237 22.8743 13.3834 22.8196 13.5724C22.6206 14.2041 25.5104 16.87 27.9475 14.9278C30.3846 12.9855 31.5808 13.3387 31.7027 14.2886Z" fill="#FCDC59"/>
<path d="M32.1652 13.7589C32.1652 13.7589 31.9862 14.5472 27.2387 15.2087C23.9088 15.6738 22.6156 14.6218 22.1406 13.9653L22.3495 13.6743C22.4424 13.5483 22.5394 13.419 22.6405 13.2864C23.021 13.2118 23.3865 13.1819 23.2821 13.3635C23.0856 13.7191 25.9729 15.2212 28.4125 14.1269C30.8521 13.0327 32.0434 13.2242 32.1652 13.7589Z" fill="#E2C447"/>
<path d="M32.4413 13.4205C32.4413 13.4205 32.2623 14.2088 27.5148 14.8703C24.1824 15.3354 22.8917 14.2834 22.4167 13.6269L22.6256 13.3359C22.7177 13.2091 22.8122 13.0873 22.9166 12.948C23.2971 12.8734 23.6627 12.8435 23.5582 13.0251C23.3593 13.3807 26.249 14.8828 28.6862 13.7886C31.1233 12.6943 32.3195 12.8858 32.4413 13.4205Z" fill="#FCDC59"/>
<path d="M26.0549 13.51C26.1768 12.9754 27.3705 12.764 29.8101 13.8657C32.2497 14.9674 34.9356 12.7814 35.224 12.5327C35.9974 11.819 36.7162 13.1246 36.7162 13.1246C36.7162 13.1246 35.7214 15.6313 30.9789 14.9698C26.2365 14.3083 26.0549 13.51 26.0549 13.51Z" fill="#FCDC59"/>
<path d="M24.2147 12.4181C24.3366 11.4681 25.5303 11.1075 27.9699 13.0498C30.4095 14.992 33.2968 12.3261 33.1003 11.6944C32.9039 11.0628 34.4955 11.876 34.4955 11.876C34.4955 11.876 33.8911 16.1658 29.1412 14.992C24.3913 13.8182 24.2147 12.4181 24.2147 12.4181Z" fill="#EFD050"/>
<path d="M24.3142 12.207C24.4361 11.257 25.6298 10.8964 28.0694 12.8386C30.509 14.7809 33.3963 12.115 33.1998 11.4833C33.0033 10.8516 35.1147 11.262 35.3211 11.6996C35.5275 12.1373 33.9981 15.9547 29.2482 14.7709C24.4982 13.5872 24.3142 12.207 24.3142 12.207Z" fill="#FCDC59"/>
<path d="M35.331 10.9338C35.2215 9.98386 34.1472 9.62327 31.9513 11.5655C29.7554 13.5078 27.1541 10.8443 27.3332 10.2102C27.5122 9.57601 26.0748 10.3917 26.0748 10.3917C26.0748 10.3917 26.6195 14.6816 30.8944 13.5078C35.1693 12.334 35.331 10.9338 35.331 10.9338Z" fill="#EFD050"/>
<path d="M35.234 10.7219C35.1246 9.77443 34.0503 9.41135 31.8544 11.3536C29.6585 13.2958 27.0597 10.6324 27.2363 9.99825C27.4128 9.3641 25.9779 10.1798 25.9779 10.1798C25.9779 10.1798 26.525 14.4721 30.8 13.2958C35.0749 12.1196 35.234 10.7219 35.234 10.7219Z" fill="#FCDC59"/>
<path d="M27.6193 4.17162C27.9376 5.69856 26.9851 5.6911 25.5353 5.93481C24.4833 6.10889 23.6129 5.28574 23.6129 4.48745C23.6129 3.68916 24.5629 2.7168 25.6223 2.7168C26.6817 2.7168 27.4949 3.57974 27.6193 4.17162Z" fill="#318446"/>
<path d="M27.3631 4.12976C27.654 5.54728 26.7861 5.53982 25.4656 5.76612C24.5056 5.92777 23.7098 5.1643 23.7098 4.42321C23.7098 3.68212 24.5753 2.77441 25.5427 2.77441C26.5101 2.77441 27.2511 3.58016 27.3631 4.12976Z" fill="#9ACCA3"/>
<path d="M31.3893 3.33133C31.638 4.85578 30.8919 4.85081 29.7479 5.09204C28.9198 5.26861 28.231 4.44545 28.231 3.64716C28.231 2.84888 28.977 1.87402 29.8151 1.87402C30.6532 1.87402 31.2923 2.72951 31.3893 3.33133Z" fill="#318446"/>
<path d="M31.1878 3.27669C31.4166 4.6942 30.7327 4.68923 29.6957 4.91305C28.9496 5.07718 28.313 4.31123 28.313 3.57014C28.313 2.82905 28.9944 1.92383 29.7579 1.92383C30.5213 1.92383 31.0983 2.72709 31.1878 3.27669Z" fill="#9ACCA3"/>
<path d="M28.89 3.26652C29.1262 4.46519 28.4224 4.46022 27.3481 4.64922C27.1785 4.6786 27.0046 4.67177 26.8377 4.62919C26.6709 4.58661 26.515 4.50924 26.3802 4.40215C26.2454 4.29507 26.1348 4.16068 26.0556 4.00783C25.9764 3.85497 25.9304 3.68709 25.9207 3.51521C25.9207 2.88852 26.6244 2.12256 27.4128 2.12256C27.7476 2.13504 28.0702 2.25209 28.3351 2.45726C28.6001 2.66244 28.7941 2.94543 28.89 3.26652V3.26652Z" fill="#318446"/>
<path d="M28.7034 3.23182C28.9173 4.34594 28.2732 4.34096 27.2959 4.51753C27.1398 4.54294 26.9802 4.53508 26.8274 4.49445C26.6746 4.45382 26.5321 4.38134 26.4093 4.28177C26.2865 4.1822 26.1861 4.05779 26.1147 3.9167C26.0434 3.77561 26.0026 3.62103 25.9952 3.4631C26.0308 3.12128 26.187 2.80334 26.4359 2.56633C26.6847 2.32932 27.0099 2.18878 27.3531 2.16992C27.661 2.1833 27.9569 2.29298 28.1992 2.48349C28.4415 2.674 28.6178 2.93574 28.7034 3.23182V3.23182Z" fill="#9ACCA3"/>
<path d="M33.3017 3.31633C33.4857 4.43045 32.9361 4.42548 32.103 4.60205C31.4962 4.73137 30.9939 4.12954 30.9939 3.54761C30.9939 2.96569 31.541 2.25195 32.1528 2.25195C32.7645 2.25195 33.2296 2.88362 33.3017 3.31633Z" fill="#318446"/>
<path d="M33.155 3.28416C33.3217 4.3187 32.8218 4.31622 32.0608 4.48035C31.5087 4.59972 31.0511 4.04017 31.0511 3.49803C31.0511 2.9559 31.5485 2.29688 32.1081 2.29688C32.6676 2.29688 33.0904 2.88378 33.155 3.28416Z" fill="#9ACCA3"/>
<path d="M33.5579 4.99735C33.8065 6.52429 33.0605 6.51682 31.9165 6.75805C31.0884 6.93462 30.3995 6.11146 30.3995 5.31318C30.3995 4.51489 31.1456 3.54004 31.9837 3.54004C32.8217 3.54004 33.4609 4.40547 33.5579 4.99735Z" fill="#318446"/>
<path d="M33.3565 4.95247C33.5853 6.36999 32.9014 6.36501 31.8644 6.58883C31.1183 6.75296 30.4817 5.98701 30.4817 5.24592C30.4817 4.50483 31.1631 3.59961 31.9266 3.59961C32.69 3.59961 33.267 4.40287 33.3565 4.95247Z" fill="#9ACCA3"/>
<path d="M31.837 4.35061C32.021 5.46721 31.4739 5.46224 30.6383 5.63881C30.034 5.76564 29.5366 5.1663 29.5366 4.57442C29.5366 3.98255 30.0812 3.28125 30.693 3.28125C31.3048 3.28125 31.7748 3.92038 31.837 4.35061Z" fill="#318446"/>
<path d="M31.6928 4.32616C31.8594 5.36318 31.3595 5.35821 30.5985 5.52234C30.0465 5.64171 29.5889 5.08217 29.5889 4.54251C29.5889 4.00286 30.0862 3.33887 30.6433 3.33887C31.2004 3.33887 31.6256 3.91831 31.6928 4.32616Z" fill="#9ACCA3"/>
<path d="M30.3523 4.84099C30.601 5.99987 29.8723 5.9949 28.7731 6.17893C27.9749 6.31073 27.3134 5.68155 27.3134 5.07973C27.3134 4.4779 28.0321 3.73682 28.8378 3.73682C29.1733 3.74215 29.499 3.85113 29.7701 4.04881C30.0412 4.24649 30.2446 4.52319 30.3523 4.84099V4.84099Z" fill="#318446"/>
<path d="M30.1608 4.80819C30.3796 5.88252 29.7206 5.87755 28.7184 6.05163C28.5631 6.08033 28.4034 6.0761 28.2498 6.03922C28.0961 6.00233 27.952 5.93362 27.8266 5.83752C27.7012 5.74142 27.5973 5.62006 27.5218 5.48131C27.4462 5.34256 27.4006 5.18949 27.3879 5.03201C27.3879 4.46998 28.042 3.78857 28.7781 3.78857C29.0856 3.79532 29.3834 3.89691 29.6309 4.07942C29.8784 4.26194 30.0635 4.51647 30.1608 4.80819V4.80819Z" fill="#9ACCA3"/>
<path d="M43.7963 7.51671C43.7963 7.51671 35.4479 10.5184 35.7537 8.30504C35.8209 7.80767 34.2069 8.01905 35.1594 7.90466C39.1707 7.4222 42.9383 4.22657 44.2414 4.92041C47.6012 6.71593 46.6661 6.27576 43.7963 7.51671Z" fill="#8E5229"/>
<path d="M42.3116 10.1505C42.3116 10.1505 51.0629 10.3121 50.2224 8.27785C50.0334 7.81529 48.3224 7.61137 47.3749 7.75561C44.1817 8.24055 41.8839 7.65613 40.8095 8.75036C38.0317 11.568 39.2503 9.89432 42.3116 10.1505Z" fill="#773C22"/>
<path d="M41.1504 9.22751C41.1504 9.22751 49.8967 8.8694 48.9666 6.88736C48.7528 6.43724 47.0368 6.33528 46.0968 6.53671C42.9285 7.21066 40.6083 6.76551 39.5862 7.91693C36.9401 10.8987 38.0816 9.15539 41.1504 9.22751Z" fill="#512819"/>
<path d="M40.7798 8.87444C40.7798 8.87444 49.5237 8.51385 48.5936 6.5343C48.3822 6.08169 46.6638 5.97972 45.7237 6.18116C42.5579 6.8551 40.2352 6.40995 39.2131 7.56137C36.5671 10.5431 37.7085 8.80232 40.7798 8.87444Z" fill="#773C22"/>
<path d="M41.1826 11.6498C41.1826 11.6498 50.7496 12.0577 49.909 10.0259C49.7175 9.56335 51.0729 8.6631 49.3744 8.80485C45.4128 9.1356 39.9242 7.51665 38.8624 8.6059C36.0845 11.426 39.0389 10.0955 41.1826 11.6498Z" fill="#512819"/>
<path d="M46.9721 10.2944C45.6814 10.2447 45.9525 9.03359 44.8533 9.15296C43.7541 9.27233 44.6294 7.75534 43.4979 8.05128C42.3664 8.34722 42.6598 7.63846 42.0058 7.81751C41.5108 7.95764 41.0235 8.12366 40.546 8.31489C40.546 8.31489 38.8052 7.83244 38.2382 8.03138C37.646 8.19528 37.0271 8.23925 36.4178 8.1607C35.8955 8.11345 35.5399 9.28477 35.5399 9.28477C35.5399 9.28477 36.8107 8.89184 37.9199 9.16291C39.029 9.43398 40.7698 8.71279 41.4835 9.82442C42.1973 10.9361 42.436 12.5152 43.9182 12.0626C45.4004 11.61 46.7756 12.4431 47.2481 12.6296C47.7206 12.8161 48.223 11.8537 48.223 11.8537C48.223 11.8537 47.7231 10.3168 46.9721 10.2944Z" fill="#0E5110"/>
<path d="M45.8504 10.9436C45.8504 10.9436 42.3986 8.70539 40.9016 8.8919C39.4045 9.07842 38.4744 9.10328 38.4744 9.10328C38.4744 9.10328 41.9411 9.45393 42.8388 9.81702C43.7366 10.1801 45.8504 10.9436 45.8504 10.9436Z" fill="#377C37"/>
<path d="M45.5969 11.3041C44.3087 11.217 44.6021 10.0134 43.5079 10.0979C42.4137 10.1825 43.3139 8.69535 42.1749 8.95647C41.036 9.21759 41.3493 8.51878 40.6828 8.67794C40.1853 8.80404 39.6948 8.95594 39.2131 9.13304C39.2131 9.13304 37.4723 8.59836 36.9102 8.7799C36.3148 8.92784 35.6954 8.95322 35.0898 8.85451C34.5676 8.78985 34.202 8.22533 34.202 9.24495C34.202 10.2646 35.6792 9.09822 36.5695 9.90397C37.5842 10.8241 39.1534 10.4461 39.8398 11.5776C40.5261 12.7092 41.0061 13.3881 42.4957 12.9802C43.9854 12.5724 45.3457 13.4503 45.8132 13.6467C46.2808 13.8432 46.808 12.9007 46.808 12.9007C46.808 12.9007 46.3479 11.3563 45.5969 11.3041Z" fill="#0E5110"/>
<path d="M44.4579 11.9257C44.4579 11.9257 41.0608 9.58059 39.5612 9.72731C38.0616 9.87404 37.1266 9.86409 37.1266 9.86409C37.1266 9.86409 40.5858 10.3192 41.4736 10.7096C42.3615 11.1001 44.4579 11.9257 44.4579 11.9257Z" fill="#377C37"/>
<path d="M23.302 4.83587C20.1213 4.50512 16.4357 7.0094 17.5499 8.65074C18.664 10.2921 21.9342 10.312 25.5576 10.6576C28.8676 10.9735 35.4205 10.4338 36.0273 8.74772C36.7236 6.82288 33.2743 6.21111 32.0483 5.65157C30.4294 4.92043 26.6941 5.18901 23.302 4.83587Z" fill="#FCFCFC"/>
<path d="M22.8569 7.23805C22.8569 6.6785 24.5977 5.62158 26.7315 5.62158C28.8652 5.62158 30.6085 6.6785 30.6085 7.23805C30.6085 7.7976 28.9423 8.00401 26.8011 8.00401C24.6599 8.00401 22.8569 7.80754 22.8569 7.23805Z" fill="#F9B938"/>
<path d="M29.8126 7.02689C29.7678 7.24822 29.1585 7.46458 28.9049 7.21589C28.8228 7.13631 29.4719 7.07414 29.5166 6.85281C29.5614 6.63148 28.8228 6.52952 29.064 6.41263C29.2282 6.33554 29.8573 6.81302 29.8126 7.02689Z" fill="#F9F1CA"/>
<path d="M53.0873 9.31934C52.0702 13.4898 40.7823 17.71 27.0125 17.71C13.2427 17.71 1.95227 13.4898 0.937622 9.31934H3.92187C5.9437 12.5 15.5157 15.5017 27.0224 15.5017C38.5292 15.5017 48.1012 12.5 50.1205 9.31934H53.0873Z" fill="#262626"/>
</svg>
